<svg version="1.1" xmlns="http://www.w3.org/2000/svg" xmlns:xlink="http://www.w3.org/1999/xlink" width="1031" height="675"><defs><clipPath id="sBdISqRleCuh"><path fill="none" stroke="none" d=" M 0 0 L 1031 0 L 1031 675 L 0 675 L 0 0 Z"/></clipPath></defs><g transform="scale(1,1)" clip-path="url(#sBdISqRleCuh)"><g><rect fill="rgb(255,255,255)" stroke="none" x="0" y="0" width="1032" height="676" fill-opacity="1"/><path fill="none" stroke="rgb(180,179,186)" paint-order="fill stroke markers" d=" M 45.5 0.5 L 45.5 675.5 M 45.5 0.5 L 45.5 675.5 M 119.5 0.5 L 119.5 675.5 M 192.5 0.5 L 192.5 675.5 M 266.5 0.5 L 266.5 675.5 M 340.5 0.5 L 340.5 675.5 M 414.5 0.5 L 414.5 675.5 M 487.5 0.5 L 487.5 675.5 M 635.5 0.5 L 635.5 675.5 M 708.5 0.5 L 708.5 675.5 M 782.5 0.5 L 782.5 675.5 M 856.5 0.5 L 856.5 675.5 M 930.5 0.5 L 930.5 675.5 M 1003.5 0.5 L 1003.5 675.5" stroke-opacity="1" stroke-linecap="round" stroke-linejoin="round" stroke-miterlimit="10"/><path fill="none" stroke="rgb(180,179,186)" paint-order="fill stroke markers" d="" stroke-opacity="0.23529411764705882" stroke-linecap="round" stroke-linejoin="round" stroke-miterlimit="10"/><path fill="none" stroke="rgb(180,179,186)" paint-order="fill stroke markers" d=" M 0.5 59.5 L 1031.5 59.5 M 0.5 59.5 L 1031.5 59.5 M 0.5 133.5 L 1031.5 133.5 M 0.5 207.5 L 1031.5 207.5 M 0.5 280.5 L 1031.5 280.5 M 0.5 354.5 L 1031.5 354.5 M 0.5 428.5 L 1031.5 428.5 M 0.5 575.5 L 1031.5 575.5 M 0.5 649.5 L 1031.5 649.5" stroke-opacity="1" stroke-linecap="round" stroke-linejoin="round" stroke-miterlimit="10"/><path fill="none" stroke="rgb(180,179,186)" paint-order="fill stroke markers" d="" stroke-opacity="0.23529411764705882" stroke-linecap="round" stroke-linejoin="round" stroke-miterlimit="10"/><path fill="none" stroke="rgb(28,28,31)" paint-order="fill stroke markers" d=" M 561.5 2.5 L 561.5 675.5" stroke-opacity="1" stroke-miterlimit="10"/><path fill="none" stroke="rgb(28,28,31)" paint-order="fill stroke markers" d=" M 561.5 1.5 L 557.5 5.5" stroke-opacity="1" stroke-miterlimit="10"/><path fill="none" stroke="rgb(28,28,31)" paint-order="fill stroke markers" d=" M 561.5 1.5 L 565.5 5.5" stroke-opacity="1" stroke-miterlimit="10"/><path fill="none" stroke="rgb(28,28,31)" paint-order="fill stroke markers" d=" M 0.5 501.5 L 1029.5 501.5" stroke-opacity="1" stroke-miterlimit="10"/><path fill="none" stroke="rgb(28,28,31)" paint-order="fill stroke markers" d=" M 1030.5 501.5 L 1026.5 497.5" stroke-opacity="1" stroke-miterlimit="10"/><path fill="none" stroke="rgb(28,28,31)" paint-order="fill stroke markers" d=" M 1030.5 501.5 L 1026.5 505.5" stroke-opacity="1" stroke-miterlimit="10"/><text fill="rgb(28,28,31)" stroke="none" font-family="geogebra-sans-serif, sans-serif" font-size="12px" font-style="normal" font-weight="normal" text-decoration="normal" x="37" y="517" text-anchor="start" dominant-baseline="alphabetic" fill-opacity="1">–14</text><text fill="rgb(28,28,31)" stroke="none" font-family="geogebra-sans-serif, sans-serif" font-size="12px" font-style="normal" font-weight="normal" text-decoration="normal" x="111" y="517" text-anchor="start" dominant-baseline="alphabetic" fill-opacity="1">–12</text><text fill="rgb(28,28,31)" stroke="none" font-family="geogebra-sans-serif, sans-serif" font-size="12px" font-style="normal" font-weight="normal" text-decoration="normal" x="184" y="517" text-anchor="start" dominant-baseline="alphabetic" fill-opacity="1">–10</text><text fill="rgb(28,28,31)" stroke="none" font-family="geogebra-sans-serif, sans-serif" font-size="12px" font-style="normal" font-weight="normal" text-decoration="normal" x="261" y="517" text-anchor="start" dominant-baseline="alphabetic" fill-opacity="1">–8</text><text fill="rgb(28,28,31)" stroke="none" font-family="geogebra-sans-serif, sans-serif" font-size="12px" font-style="normal" font-weight="normal" text-decoration="normal" x="335" y="517" text-anchor="start" dominant-baseline="alphabetic" fill-opacity="1">–6</text><text fill="rgb(28,28,31)" stroke="none" font-family="geogebra-sans-serif, sans-serif" font-size="12px" font-style="normal" font-weight="normal" text-decoration="normal" x="409" y="517" text-anchor="start" dominant-baseline="alphabetic" fill-opacity="1">–4</text><text fill="rgb(28,28,31)" stroke="none" font-family="geogebra-sans-serif, sans-serif" font-size="12px" font-style="normal" font-weight="normal" text-decoration="normal" x="482" y="517" text-anchor="start" dominant-baseline="alphabetic" fill-opacity="1">–2</text><text fill="rgb(28,28,31)" stroke="none" font-family="geogebra-sans-serif, sans-serif" font-size="12px" font-style="normal" font-weight="normal" text-decoration="normal" x="633" y="517" text-anchor="start" dominant-baseline="alphabetic" fill-opacity="1">2</text><text fill="rgb(28,28,31)" stroke="none" font-family="geogebra-sans-serif, sans-serif" font-size="12px" font-style="normal" font-weight="normal" text-decoration="normal" x="706" y="517" text-anchor="start" dominant-baseline="alphabetic" fill-opacity="1">4</text><text fill="rgb(28,28,31)" stroke="none" font-family="geogebra-sans-serif, sans-serif" font-size="12px" font-style="normal" font-weight="normal" text-decoration="normal" x="780" y="517" text-anchor="start" dominant-baseline="alphabetic" fill-opacity="1">6</text><text fill="rgb(28,28,31)" stroke="none" font-family="geogebra-sans-serif, sans-serif" font-size="12px" font-style="normal" font-weight="normal" text-decoration="normal" x="854" y="517" text-anchor="start" dominant-baseline="alphabetic" fill-opacity="1">8</text><text fill="rgb(28,28,31)" stroke="none" font-family="geogebra-sans-serif, sans-serif" font-size="12px" font-style="normal" font-weight="normal" text-decoration="normal" x="925" y="517" text-anchor="start" dominant-baseline="alphabetic" fill-opacity="1">10</text><text fill="rgb(28,28,31)" stroke="none" font-family="geogebra-sans-serif, sans-serif" font-size="12px" font-style="normal" font-weight="normal" text-decoration="normal" x="998" y="517" text-anchor="start" dominant-baseline="alphabetic" fill-opacity="1">12</text><text fill="rgb(28,28,31)" stroke="none" font-family="geogebra-sans-serif, sans-serif" font-size="12px" font-style="normal" font-weight="normal" text-decoration="normal" x="541" y="654" text-anchor="start" dominant-baseline="alphabetic" fill-opacity="1">–4</text><text fill="rgb(28,28,31)" stroke="none" font-family="geogebra-sans-serif, sans-serif" font-size="12px" font-style="normal" font-weight="normal" text-decoration="normal" x="541" y="580" text-anchor="start" dominant-baseline="alphabetic" fill-opacity="1">–2</text><text fill="rgb(28,28,31)" stroke="none" font-family="geogebra-sans-serif, sans-serif" font-size="12px" font-style="normal" font-weight="normal" text-decoration="normal" x="547" y="433" text-anchor="start" dominant-baseline="alphabetic" fill-opacity="1">2</text><text fill="rgb(28,28,31)" stroke="none" font-family="geogebra-sans-serif, sans-serif" font-size="12px" font-style="normal" font-weight="normal" text-decoration="normal" x="547" y="359" text-anchor="start" dominant-baseline="alphabetic" fill-opacity="1">4</text><text fill="rgb(28,28,31)" stroke="none" font-family="geogebra-sans-serif, sans-serif" font-size="12px" font-style="normal" font-weight="normal" text-decoration="normal" x="547" y="285" text-anchor="start" dominant-baseline="alphabetic" fill-opacity="1">6</text><text fill="rgb(28,28,31)" stroke="none" font-family="geogebra-sans-serif, sans-serif" font-size="12px" font-style="normal" font-weight="normal" text-decoration="normal" x="547" y="212" text-anchor="start" dominant-baseline="alphabetic" fill-opacity="1">8</text><text fill="rgb(28,28,31)" stroke="none" font-family="geogebra-sans-serif, sans-serif" font-size="12px" font-style="normal" font-weight="normal" text-decoration="normal" x="541" y="138" text-anchor="start" dominant-baseline="alphabetic" fill-opacity="1">10</text><text fill="rgb(28,28,31)" stroke="none" font-family="geogebra-sans-serif, sans-serif" font-size="12px" font-style="normal" font-weight="normal" text-decoration="normal" x="541" y="64" text-anchor="start" dominant-baseline="alphabetic" fill-opacity="1">12</text><text fill="rgb(28,28,31)" stroke="none" font-family="geogebra-sans-serif, sans-serif" font-size="12px" font-style="normal" font-weight="normal" text-decoration="normal" x="547" y="517" text-anchor="start" dominant-baseline="alphabetic" fill-opacity="1">0</text><path fill="none" stroke="rgb(56,140,131)" paint-order="fill stroke markers" d=" M 638.84939063245 354.44042868478687 C 638.84939063245 458.23700068430753 554.705643745162 542.3807475715956 450.9090717456413 542.3807475715956 C 347.11249974612065 542.3807475715956 262.96875285883266 458.23700068430753 262.96875285883266 354.44042868478687 C 262.96875285883266 250.64385668526614 347.11249974612065 166.50010979797807 450.9090717456413 166.50010979797807 C 554.705643745162 166.50010979797807 638.84939063245 250.64385668526614 638.84939063245 354.44042868478687 Z" stroke-opacity="0.6980392156862745" stroke-linecap="round" stroke-linejoin="round" stroke-miterlimit="10" stroke-width="2.5"/><text fill="rgb(56,140,131)" stroke="none" font-family="geogebra-sans-serif, sans-serif" font-size="16px" font-style="normal" font-weight="normal" text-decoration="normal" x="356" y="214" text-anchor="start" dominant-baseline="alphabetic" fill-opacity="1">c: (x + 3)² + (y - 4)² = 26</text><path fill="none" stroke="rgb(101,87,210)" paint-order="fill stroke markers" d=" M 746.0332653270888 681 L 538.5386568597361 -5" stroke-opacity="0.8" stroke-linecap="round" stroke-linejoin="round" stroke-miterlimit="10" stroke-width="2.5"/><text fill="rgb(101,87,210)" stroke="none" font-family="geogebra-sans-serif, sans-serif" font-size="16px" font-style="normal" font-weight="normal" text-decoration="normal" x="551" y="91" text-anchor="start" dominant-baseline="alphabetic" fill-opacity="1">L1: 3.30611x + y + 3.30611 - 15 = 0</text><path fill="none" stroke="rgb(0,103,88)" paint-order="fill stroke markers" d=" M -5 640.7499493141446 L 489.40701726052487 -5" stroke-opacity="0.8" stroke-linecap="round" stroke-linejoin="round" stroke-miterlimit="10" stroke-width="2.5"/><text fill="rgb(0,103,88)" stroke="none" font-family="geogebra-sans-serif, sans-serif" font-size="16px" font-style="normal" font-weight="normal" text-decoration="normal" x="430" y="24" text-anchor="start" dominant-baseline="alphabetic" fill-opacity="1">L2: -1.30611 x + y - 1.30611 - 15 = 0</text><path fill="none" stroke="rgb(56,140,131)" paint-order="fill stroke markers" d=" M 450.90907174564137 354.44042868478687 L 638.8493906324501 354.44042868478687" stroke-opacity="0.6980392156862745" stroke-linejoin="round" stroke-miterlimit="10" stroke-width="2.5" stroke-dasharray="10.5,8"/><path fill="rgb(21,101,192)" stroke="none" paint-order="stroke fill markers" d=" M 455.90907174564137 354.44042868478687 C 455.90907174564137 357.2018524339408 453.6704954947953 359.44042868478687 450.90907174564137 359.44042868478687 C 448.1476479964874 359.44042868478687 445.90907174564137 357.2018524339408 445.90907174564137 354.44042868478687 C 445.90907174564137 351.6790049356329 448.1476479964874 349.44042868478687 450.90907174564137 349.44042868478687 C 453.6704954947953 349.44042868478687 455.90907174564137 351.6790049356329 455.90907174564137 354.44042868478687 Z" fill-opacity="1"/><path fill="none" stroke="rgb(0,0,0)" paint-order="fill stroke markers" d=" M 455.90907174564137 354.44042868478687 C 455.90907174564137 357.2018524339408 453.6704954947953 359.44042868478687 450.90907174564137 359.44042868478687 C 448.1476479964874 359.44042868478687 445.90907174564137 357.2018524339408 445.90907174564137 354.44042868478687 C 445.90907174564137 351.6790049356329 448.1476479964874 349.44042868478687 450.90907174564137 349.44042868478687 C 453.6704954947953 349.44042868478687 455.90907174564137 351.6790049356329 455.90907174564137 354.44042868478687 Z" stroke-opacity="1" stroke-linecap="round" stroke-linejoin="round" stroke-miterlimit="10"/><text fill="rgb(21,101,192)" stroke="none" font-family="geogebra-sans-serif, sans-serif" font-size="16px" font-style="normal" font-weight="normal" text-decoration="normal" x="455" y="344" text-anchor="start" dominant-baseline="alphabetic" fill-opacity="1">A</text><g transform="scale(19,19)"><g transform="translate(25.526315789473685,18.271662973684208)"><path fill="rgb(0,0,0)" stroke="none" paint-order="stroke fill markers" d=" M 0.088 -0.059000000000000004 L 0.088 -0.059000000000000004 L 0.146 -0.29 Q 0.162 -0.354 0.162 -0.374 Q 0.162 -0.42 0.131 -0.42 Q 0.09 -0.42 0.064 -0.325 Q 0.061 -0.314 0.058 -0.301 Q 0.047 -0.279 0.041 -0.278 Q 0.029 -0.278 0.029 -0.28800000000000003 Q 0.029 -0.304 0.047 -0.355 Q 0.054 -0.373 0.06 -0.385 Q 0.084 -0.434 0.12 -0.441 Q 0.127 -0.442 0.134 -0.442 Q 0.19 -0.442 0.215 -0.394 Q 0.221 -0.383 0.224 -0.37 Q 0.225 -0.368 0.225 -0.365 Q 0.28300000000000003 -0.437 0.353 -0.442 Q 0.40900000000000003 -0.442 0.429 -0.403 Q 0.436 -0.391 0.436 -0.377 Q 0.436 -0.338 0.403 -0.323 Q 0.392 -0.318 0.381 -0.318 Q 0.35000000000000003 -0.318 0.34400000000000003 -0.34500000000000003 Q 0.343 -0.34900000000000003 0.343 -0.353 Q 0.343 -0.386 0.377 -0.402 L 0.378 -0.403 Q 0.386 -0.406 0.395 -0.40800000000000003 L 0.375 -0.417 Q 0.362 -0.419 0.353 -0.42 Q 0.311 -0.42 0.273 -0.387 Q 0.242 -0.359 0.22 -0.313 Q 0.218 -0.308 0.217 -0.305 L 0.185 -0.17500000000000002 L 0.145 -0.017 Q 0.136 0.009000000000000001 0.108 0.011 Q 0.083 0.006 0.079 -0.016 Q 0.079 -0.014 0.088 -0.059000000000000004 Z" fill-opacity="1"/></g><g transform="translate(26.283093567251463,18.271662973684208)"><path fill="rgb(0,0,0)" stroke="none" paint-order="stroke fill markers" d=" M 0.687 -0.327 L 0.09 -0.327 Q 0.058 -0.327 0.056 -0.34700000000000003 Q 0.056 -0.367 0.089 -0.367 L 0.6880000000000001 -0.367 Q 0.72 -0.367 0.721 -0.34700000000000003 Q 0.721 -0.327 0.687 -0.327 M 0.6880000000000001 -0.133 L 0.089 -0.133 Q 0.057 -0.133 0.056 -0.153 Q 0.056 -0.17300000000000001 0.09 -0.17300000000000001 L 0.687 -0.17300000000000001 Q 0.719 -0.17300000000000001 0.721 -0.153 Q 0.721 -0.133 0.6880000000000001 -0.133 Z" fill-opacity="1"/></g><g transform="translate(27.33887134502924,17.39578847368421)"><path fill="rgb(0,0,0)" stroke="none" paint-order="stroke fill markers" d=" M 0.389 0.855 L 0.812 -0.021 Q 0.8250000000000001 -0.038 0.833 -0.04 Q 0.85 -0.04 0.853 -0.02 Q 0.853 -0.016 0.847 -0.003 L 0.391 0.9410000000000001 Q 0.383 0.9570000000000001 0.375 0.9590000000000001 Q 0.372 0.96 0.366 0.96 Q 0.354 0.96 0.35000000000000003 0.9510000000000001 L 0.34700000000000003 0.9450000000000001 L 0.149 0.51 L 0.097 0.549 Q 0.088 0.557 0.083 0.557 Q 0.073 0.557 0.073 0.546 Q 0.073 0.542 0.085 0.532 L 0.184 0.457 Q 0.193 0.449 0.198 0.449 Q 0.20400000000000001 0.449 0.211 0.463 L 0.389 0.855 Z" fill-opacity="1"/></g><path fill="rgb(0,0,0)" stroke="none" paint-order="stroke fill markers" d=" M 28.17187134502924 17.355789473684208 L 29.227426900584796 17.355789473684208 L 29.227426900584796 17.395789473684207 L 28.17187134502924 17.395789473684207 L 28.17187134502924 17.355789473684208 Z" fill-opacity="1"/><g transform="translate(28.17187134502924,18.271663973684205)"><path fill="rgb(0,0,0)" stroke="none" paint-order="stroke fill markers" d=" M 0.449 -0.17400000000000002 L 0.449 -0.17400000000000002 L 0.421 0 L 0.05 0 Q 0.05 -0.025 0.056 -0.032 L 0.061 -0.037 L 0.253 -0.251 Q 0.358 -0.369 0.358 -0.47200000000000003 Q 0.358 -0.561 0.304 -0.607 L 0.303 -0.608 L 0.302 -0.608 Q 0.27 -0.635 0.224 -0.635 Q 0.152 -0.635 0.109 -0.5730000000000001 Q 0.097 -0.555 0.089 -0.533 Q 0.092 -0.534 0.10200000000000001 -0.534 Q 0.14200000000000002 -0.534 0.153 -0.498 L 0.153 -0.497 Q 0.155 -0.49 0.155 -0.482 Q 0.155 -0.442 0.117 -0.431 Q 0.109 -0.429 0.10300000000000001 -0.429 Q 0.066 -0.429 0.054 -0.46 Q 0.05 -0.47100000000000003 0.05 -0.485 Q 0.05 -0.562 0.109 -0.617 Q 0.162 -0.666 0.23700000000000002 -0.666 Q 0.34700000000000003 -0.666 0.40800000000000003 -0.592 Q 0.443 -0.549 0.448 -0.49 Q 0.449 -0.481 0.449 -0.47200000000000003 Q 0.449 -0.399 0.394 -0.333 Q 0.365 -0.299 0.304 -0.243 L 0.243 -0.189 L 0.233 -0.18 L 0.127 -0.077 L 0.307 -0.077 Q 0.395 -0.077 0.402 -0.085 Q 0.41200000000000003 -0.099 0.424 -0.17400000000000002 L 0.449 -0.17400000000000002 Z" fill-opacity="1"/></g><g transform="translate(28.67187134502924,18.271663973684205)"><path fill="rgb(0,0,0)" stroke="none" paint-order="stroke fill markers" d=" M 0.132 -0.328 L 0.132 -0.328 Q 0.17300000000000001 -0.427 0.257 -0.427 Q 0.34900000000000003 -0.427 0.40800000000000003 -0.35100000000000003 Q 0.441 -0.31 0.452 -0.255 Q 0.457 -0.23 0.457 -0.20400000000000001 Q 0.457 -0.093 0.38 -0.026000000000000002 Q 0.324 0.022 0.251 0.022 Q 0.149 0.022 0.092 -0.075 Q 0.042 -0.162 0.042 -0.316 Q 0.042 -0.489 0.14 -0.591 Q 0.213 -0.666 0.305 -0.666 Q 0.392 -0.666 0.422 -0.605 Q 0.432 -0.584 0.432 -0.558 Q 0.432 -0.518 0.395 -0.511 Q 0.39 -0.51 0.386 -0.51 Q 0.354 -0.51 0.343 -0.538 Q 0.34 -0.546 0.34 -0.556 Q 0.34 -0.601 0.395 -0.601 Q 0.369 -0.641 0.307 -0.641 Q 0.23700000000000002 -0.641 0.189 -0.578 Q 0.132 -0.503 0.132 -0.352 L 0.132 -0.328 M 0.251 -0.006 L 0.251 -0.006 Q 0.318 -0.006 0.35000000000000003 -0.07100000000000001 Q 0.367 -0.107 0.367 -0.20500000000000002 Q 0.367 -0.305 0.34900000000000003 -0.342 Q 0.318 -0.404 0.256 -0.404 Q 0.177 -0.404 0.147 -0.31 Q 0.134 -0.271 0.134 -0.226 Q 0.134 -0.128 0.152 -0.081 Q 0.171 -0.035 0.211 -0.015 Q 0.23 -0.006 0.251 -0.006 Z" fill-opacity="1"/></g></g></g></g></svg>