<svg version="1.1" xmlns="http://www.w3.org/2000/svg" xmlns:xlink="http://www.w3.org/1999/xlink" width="1031" height="675"><defs><clipPath id="MtVgWJtwXDLX"><path fill="none" stroke="none" d=" M 0 0 L 1031 0 L 1031 675 L 0 675 L 0 0 Z"/></clipPath></defs><g transform="scale(1,1)" clip-path="url(#MtVgWJtwXDLX)"><g><rect fill="rgb(255,255,255)" stroke="none" x="0" y="0" width="1032" height="676" fill-opacity="1"/><path fill="none" stroke="rgb(180,179,186)" paint-order="fill stroke markers" d=" M 33.5 0.5 L 33.5 675.5 M 33.5 0.5 L 33.5 675.5 M 118.5 0.5 L 118.5 675.5 M 203.5 0.5 L 203.5 675.5 M 373.5 0.5 L 373.5 675.5 M 458.5 0.5 L 458.5 675.5 M 542.5 0.5 L 542.5 675.5 M 627.5 0.5 L 627.5 675.5 M 712.5 0.5 L 712.5 675.5 M 797.5 0.5 L 797.5 675.5 M 882.5 0.5 L 882.5 675.5 M 967.5 0.5 L 967.5 675.5" stroke-opacity="1" stroke-linecap="round" stroke-linejoin="round" stroke-miterlimit="10"/><path fill="none" stroke="rgb(180,179,186)" paint-order="fill stroke markers" d="" stroke-opacity="0.23529411764705882" stroke-linecap="round" stroke-linejoin="round" stroke-miterlimit="10"/><path fill="none" stroke="rgb(180,179,186)" paint-order="fill stroke markers" d=" M 0.5 6.5 L 1031.5 6.5 M 0.5 6.5 L 1031.5 6.5 M 0.5 91.5 L 1031.5 91.5 M 0.5 176.5 L 1031.5 176.5 M 0.5 261.5 L 1031.5 261.5 M 0.5 346.5 L 1031.5 346.5 M 0.5 431.5 L 1031.5 431.5 M 0.5 601.5 L 1031.5 601.5" stroke-opacity="1" stroke-linecap="round" stroke-linejoin="round" stroke-miterlimit="10"/><path fill="none" stroke="rgb(180,179,186)" paint-order="fill stroke markers" d="" stroke-opacity="0.23529411764705882" stroke-linecap="round" stroke-linejoin="round" stroke-miterlimit="10"/><path fill="none" stroke="rgb(28,28,31)" paint-order="fill stroke markers" d=" M 288.5 2.5 L 288.5 675.5" stroke-opacity="1" stroke-miterlimit="10"/><path fill="none" stroke="rgb(28,28,31)" paint-order="fill stroke markers" d=" M 288.5 1.5 L 284.5 5.5" stroke-opacity="1" stroke-miterlimit="10"/><path fill="none" stroke="rgb(28,28,31)" paint-order="fill stroke markers" d=" M 288.5 1.5 L 292.5 5.5" stroke-opacity="1" stroke-miterlimit="10"/><path fill="none" stroke="rgb(28,28,31)" paint-order="fill stroke markers" d=" M 0.5 516.5 L 1029.5 516.5" stroke-opacity="1" stroke-miterlimit="10"/><path fill="none" stroke="rgb(28,28,31)" paint-order="fill stroke markers" d=" M 1030.5 516.5 L 1026.5 512.5" stroke-opacity="1" stroke-miterlimit="10"/><path fill="none" stroke="rgb(28,28,31)" paint-order="fill stroke markers" d=" M 1030.5 516.5 L 1026.5 520.5" stroke-opacity="1" stroke-miterlimit="10"/><text fill="rgb(28,28,31)" stroke="none" font-family="geogebra-sans-serif, sans-serif" font-size="12px" font-style="normal" font-weight="normal" text-decoration="normal" x="28" y="532" text-anchor="start" dominant-baseline="alphabetic" fill-opacity="1">–6</text><text fill="rgb(28,28,31)" stroke="none" font-family="geogebra-sans-serif, sans-serif" font-size="12px" font-style="normal" font-weight="normal" text-decoration="normal" x="113" y="532" text-anchor="start" dominant-baseline="alphabetic" fill-opacity="1">–4</text><text fill="rgb(28,28,31)" stroke="none" font-family="geogebra-sans-serif, sans-serif" font-size="12px" font-style="normal" font-weight="normal" text-decoration="normal" x="198" y="532" text-anchor="start" dominant-baseline="alphabetic" fill-opacity="1">–2</text><text fill="rgb(28,28,31)" stroke="none" font-family="geogebra-sans-serif, sans-serif" font-size="12px" font-style="normal" font-weight="normal" text-decoration="normal" x="371" y="532" text-anchor="start" dominant-baseline="alphabetic" fill-opacity="1">2</text><text fill="rgb(28,28,31)" stroke="none" font-family="geogebra-sans-serif, sans-serif" font-size="12px" font-style="normal" font-weight="normal" text-decoration="normal" x="456" y="532" text-anchor="start" dominant-baseline="alphabetic" fill-opacity="1">4</text><text fill="rgb(28,28,31)" stroke="none" font-family="geogebra-sans-serif, sans-serif" font-size="12px" font-style="normal" font-weight="normal" text-decoration="normal" x="540" y="532" text-anchor="start" dominant-baseline="alphabetic" fill-opacity="1">6</text><text fill="rgb(28,28,31)" stroke="none" font-family="geogebra-sans-serif, sans-serif" font-size="12px" font-style="normal" font-weight="normal" text-decoration="normal" x="625" y="532" text-anchor="start" dominant-baseline="alphabetic" fill-opacity="1">8</text><text fill="rgb(28,28,31)" stroke="none" font-family="geogebra-sans-serif, sans-serif" font-size="12px" font-style="normal" font-weight="normal" text-decoration="normal" x="707" y="532" text-anchor="start" dominant-baseline="alphabetic" fill-opacity="1">10</text><text fill="rgb(28,28,31)" stroke="none" font-family="geogebra-sans-serif, sans-serif" font-size="12px" font-style="normal" font-weight="normal" text-decoration="normal" x="792" y="532" text-anchor="start" dominant-baseline="alphabetic" fill-opacity="1">12</text><text fill="rgb(28,28,31)" stroke="none" font-family="geogebra-sans-serif, sans-serif" font-size="12px" font-style="normal" font-weight="normal" text-decoration="normal" x="877" y="532" text-anchor="start" dominant-baseline="alphabetic" fill-opacity="1">14</text><text fill="rgb(28,28,31)" stroke="none" font-family="geogebra-sans-serif, sans-serif" font-size="12px" font-style="normal" font-weight="normal" text-decoration="normal" x="962" y="532" text-anchor="start" dominant-baseline="alphabetic" fill-opacity="1">16</text><text fill="rgb(28,28,31)" stroke="none" font-family="geogebra-sans-serif, sans-serif" font-size="12px" font-style="normal" font-weight="normal" text-decoration="normal" x="268" y="606" text-anchor="start" dominant-baseline="alphabetic" fill-opacity="1">–2</text><text fill="rgb(28,28,31)" stroke="none" font-family="geogebra-sans-serif, sans-serif" font-size="12px" font-style="normal" font-weight="normal" text-decoration="normal" x="274" y="436" text-anchor="start" dominant-baseline="alphabetic" fill-opacity="1">2</text><text fill="rgb(28,28,31)" stroke="none" font-family="geogebra-sans-serif, sans-serif" font-size="12px" font-style="normal" font-weight="normal" text-decoration="normal" x="274" y="351" text-anchor="start" dominant-baseline="alphabetic" fill-opacity="1">4</text><text fill="rgb(28,28,31)" stroke="none" font-family="geogebra-sans-serif, sans-serif" font-size="12px" font-style="normal" font-weight="normal" text-decoration="normal" x="274" y="266" text-anchor="start" dominant-baseline="alphabetic" fill-opacity="1">6</text><text fill="rgb(28,28,31)" stroke="none" font-family="geogebra-sans-serif, sans-serif" font-size="12px" font-style="normal" font-weight="normal" text-decoration="normal" x="274" y="181" text-anchor="start" dominant-baseline="alphabetic" fill-opacity="1">8</text><text fill="rgb(28,28,31)" stroke="none" font-family="geogebra-sans-serif, sans-serif" font-size="12px" font-style="normal" font-weight="normal" text-decoration="normal" x="268" y="96" text-anchor="start" dominant-baseline="alphabetic" fill-opacity="1">10</text><text fill="rgb(28,28,31)" stroke="none" font-family="geogebra-sans-serif, sans-serif" font-size="12px" font-style="normal" font-weight="normal" text-decoration="normal" x="274" y="532" text-anchor="start" dominant-baseline="alphabetic" fill-opacity="1">0</text><path fill="none" stroke="rgb(0,103,88)" paint-order="fill stroke markers" d=" M 670.3795437470121 303.7321546726663 C 670.3795437470121 421.0225397906535 575.2968999991431 516.1051835385225 458.00651488115574 516.1051835385225 C 340.71612976316834 516.1051835385225 245.6334860152993 421.0225397906535 245.6334860152993 303.7321546726663 C 245.6334860152993 186.44176955467904 340.71612976316834 91.35912580681008 458.00651488115574 91.35912580681008 C 575.2968999991431 91.35912580681008 670.3795437470121 186.44176955467904 670.3795437470121 303.7321546726663 Z" stroke-opacity="0.8" stroke-linecap="round" stroke-linejoin="round" stroke-miterlimit="10" stroke-width="2.5"/><text fill="rgb(0,103,88)" stroke="none" font-family="geogebra-sans-serif, sans-serif" font-size="16px" font-style="normal" font-weight="normal" text-decoration="normal" x="367" y="130" text-anchor="start" dominant-baseline="alphabetic" fill-opacity="1">x² + y² - 8x - 10y + 16 = 0</text><text fill="rgb(0,0,0)" stroke="none" font-family="geogebra-sans-serif, sans-serif" font-size="16px" font-style="normal" font-weight="normal" text-decoration="normal" x="464" y="404" text-anchor="start" dominant-baseline="alphabetic" fill-opacity="1">r = 5</text><path fill="none" stroke="rgb(0,0,0)" paint-order="fill stroke markers" d=" M 458.00651488115574 303.7321546726663 L 458.00651488115574 516.1051835385225" stroke-opacity="0.6980392156862745" stroke-linecap="round" stroke-linejoin="round" stroke-miterlimit="10" stroke-width="2.5"/><path fill="rgb(21,101,192)" stroke="none" paint-order="stroke fill markers" d=" M 463.00651488115574 516.1051835385225 C 463.00651488115574 518.8666072876765 460.7679386303097 521.1051835385225 458.00651488115574 521.1051835385225 C 455.2450911320018 521.1051835385225 453.00651488115574 518.8666072876765 453.00651488115574 516.1051835385225 C 453.00651488115574 513.3437597893685 455.2450911320018 511.1051835385225 458.00651488115574 511.1051835385225 C 460.7679386303097 511.1051835385225 463.00651488115574 513.3437597893685 463.00651488115574 516.1051835385225 Z" fill-opacity="1"/><path fill="none" stroke="rgb(0,0,0)" paint-order="fill stroke markers" d=" M 463.00651488115574 516.1051835385225 C 463.00651488115574 518.8666072876765 460.7679386303097 521.1051835385225 458.00651488115574 521.1051835385225 C 455.2450911320018 521.1051835385225 453.00651488115574 518.8666072876765 453.00651488115574 516.1051835385225 C 453.00651488115574 513.3437597893685 455.2450911320018 511.1051835385225 458.00651488115574 511.1051835385225 C 460.7679386303097 511.1051835385225 463.00651488115574 513.3437597893685 463.00651488115574 516.1051835385225 Z" stroke-opacity="1" stroke-linecap="round" stroke-linejoin="round" stroke-miterlimit="10"/><text fill="rgb(21,101,192)" stroke="none" font-family="geogebra-sans-serif, sans-serif" font-size="16px" font-style="normal" font-weight="normal" text-decoration="normal" x="456" y="552" text-anchor="start" dominant-baseline="alphabetic" fill-opacity="1">S = (4, 0)</text><path fill="rgb(21,101,192)" stroke="none" paint-order="stroke fill markers" d=" M 590.4303322006697 473.6305777653513 C 590.4303322006697 476.39200151450524 588.1917559498237 478.6305777653513 585.4303322006697 478.6305777653513 C 582.6689084515157 478.6305777653513 580.4303322006697 476.39200151450524 580.4303322006697 473.6305777653513 C 580.4303322006697 470.86915401619734 582.6689084515157 468.6305777653513 585.4303322006697 468.6305777653513 C 588.1917559498237 468.6305777653513 590.4303322006697 470.86915401619734 590.4303322006697 473.6305777653513 Z" fill-opacity="1"/><path fill="none" stroke="rgb(0,0,0)" paint-order="fill stroke markers" d=" M 590.4303322006697 473.6305777653513 C 590.4303322006697 476.39200151450524 588.1917559498237 478.6305777653513 585.4303322006697 478.6305777653513 C 582.6689084515157 478.6305777653513 580.4303322006697 476.39200151450524 580.4303322006697 473.6305777653513 C 580.4303322006697 470.86915401619734 582.6689084515157 468.6305777653513 585.4303322006697 468.6305777653513 C 588.1917559498237 468.6305777653513 590.4303322006697 470.86915401619734 590.4303322006697 473.6305777653513 Z" stroke-opacity="1" stroke-linecap="round" stroke-linejoin="round" stroke-miterlimit="10"/><text fill="rgb(21,101,192)" stroke="none" font-family="geogebra-sans-serif, sans-serif" font-size="16px" font-style="normal" font-weight="normal" text-decoration="normal" x="604" y="480" text-anchor="start" dominant-baseline="alphabetic" fill-opacity="1">T = (7, 1)</text><path fill="rgb(21,101,192)" stroke="none" paint-order="stroke fill markers" d=" M 463.00651488115574 303.7321546726663 C 463.00651488115574 306.49357842182025 460.7679386303097 308.7321546726663 458.00651488115574 308.7321546726663 C 455.2450911320018 308.7321546726663 453.00651488115574 306.49357842182025 453.00651488115574 303.7321546726663 C 453.00651488115574 300.97073092351235 455.2450911320018 298.7321546726663 458.00651488115574 298.7321546726663 C 460.7679386303097 298.7321546726663 463.00651488115574 300.97073092351235 463.00651488115574 303.7321546726663 Z" fill-opacity="1"/><path fill="none" stroke="rgb(0,0,0)" paint-order="fill stroke markers" d=" M 463.00651488115574 303.7321546726663 C 463.00651488115574 306.49357842182025 460.7679386303097 308.7321546726663 458.00651488115574 308.7321546726663 C 455.2450911320018 308.7321546726663 453.00651488115574 306.49357842182025 453.00651488115574 303.7321546726663 C 453.00651488115574 300.97073092351235 455.2450911320018 298.7321546726663 458.00651488115574 298.7321546726663 C 460.7679386303097 298.7321546726663 463.00651488115574 300.97073092351235 463.00651488115574 303.7321546726663 Z" stroke-opacity="1" stroke-linecap="round" stroke-linejoin="round" stroke-miterlimit="10"/><text fill="rgb(21,101,192)" stroke="none" font-family="geogebra-sans-serif, sans-serif" font-size="16px" font-style="normal" font-weight="normal" text-decoration="normal" x="432" y="285" text-anchor="start" dominant-baseline="alphabetic" fill-opacity="1">C = (4, 5)</text></g></g></svg>