<svg version="1.1" xmlns="http://www.w3.org/2000/svg" xmlns:xlink="http://www.w3.org/1999/xlink" width="1031" height="675"><defs><clipPath id="ufBHUhGaRveL"><path fill="none" stroke="none" d=" M 0 0 L 1031 0 L 1031 675 L 0 675 L 0 0 Z"/></clipPath></defs><g transform="scale(1,1)" clip-path="url(#ufBHUhGaRveL)"><g><rect fill="rgb(255,255,255)" stroke="none" x="0" y="0" width="1032" height="676" fill-opacity="1"/><path fill="none" stroke="rgb(180,179,186)" paint-order="fill stroke markers" d=" M 35.5 0.5 L 35.5 675.5 M 35.5 0.5 L 35.5 675.5 M 190.5 0.5 L 190.5 675.5 M 267.5 0.5 L 267.5 675.5 M 344.5 0.5 L 344.5 675.5 M 421.5 0.5 L 421.5 675.5 M 499.5 0.5 L 499.5 675.5 M 576.5 0.5 L 576.5 675.5 M 653.5 0.5 L 653.5 675.5 M 730.5 0.5 L 730.5 675.5 M 808.5 0.5 L 808.5 675.5 M 885.5 0.5 L 885.5 675.5 M 962.5 0.5 L 962.5 675.5" stroke-opacity="1" stroke-linecap="round" stroke-linejoin="round" stroke-miterlimit="10"/><path fill="none" stroke="rgb(180,179,186)" paint-order="fill stroke markers" d="" stroke-opacity="0.23529411764705882" stroke-linecap="round" stroke-linejoin="round" stroke-miterlimit="10"/><path fill="none" stroke="rgb(180,179,186)" paint-order="fill stroke markers" d=" M 0.5 21.5 L 1031.5 21.5 M 0.5 21.5 L 1031.5 21.5 M 0.5 176.5 L 1031.5 176.5 M 0.5 253.5 L 1031.5 253.5 M 0.5 330.5 L 1031.5 330.5 M 0.5 407.5 L 1031.5 407.5 M 0.5 485.5 L 1031.5 485.5 M 0.5 562.5 L 1031.5 562.5 M 0.5 639.5 L 1031.5 639.5" stroke-opacity="1" stroke-linecap="round" stroke-linejoin="round" stroke-miterlimit="10"/><path fill="none" stroke="rgb(180,179,186)" paint-order="fill stroke markers" d="" stroke-opacity="0.23529411764705882" stroke-linecap="round" stroke-linejoin="round" stroke-miterlimit="10"/><path fill="none" stroke="rgb(28,28,31)" paint-order="fill stroke markers" d=" M 113.5 2.5 L 113.5 675.5" stroke-opacity="1" stroke-miterlimit="10"/><path fill="none" stroke="rgb(28,28,31)" paint-order="fill stroke markers" d=" M 113.5 1.5 L 109.5 5.5" stroke-opacity="1" stroke-miterlimit="10"/><path fill="none" stroke="rgb(28,28,31)" paint-order="fill stroke markers" d=" M 113.5 1.5 L 117.5 5.5" stroke-opacity="1" stroke-miterlimit="10"/><path fill="none" stroke="rgb(28,28,31)" paint-order="fill stroke markers" d=" M 0.5 99.5 L 1029.5 99.5" stroke-opacity="1" stroke-miterlimit="10"/><path fill="none" stroke="rgb(28,28,31)" paint-order="fill stroke markers" d=" M 1030.5 99.5 L 1026.5 95.5" stroke-opacity="1" stroke-miterlimit="10"/><path fill="none" stroke="rgb(28,28,31)" paint-order="fill stroke markers" d=" M 1030.5 99.5 L 1026.5 103.5" stroke-opacity="1" stroke-miterlimit="10"/><text fill="rgb(28,28,31)" stroke="none" font-family="geogebra-sans-serif, sans-serif" font-size="12px" font-style="normal" font-weight="normal" text-decoration="normal" x="30" y="115" text-anchor="start" dominant-baseline="alphabetic" fill-opacity="1">–1</text><text fill="rgb(28,28,31)" stroke="none" font-family="geogebra-sans-serif, sans-serif" font-size="12px" font-style="normal" font-weight="normal" text-decoration="normal" x="188" y="115" text-anchor="start" dominant-baseline="alphabetic" fill-opacity="1">1</text><text fill="rgb(28,28,31)" stroke="none" font-family="geogebra-sans-serif, sans-serif" font-size="12px" font-style="normal" font-weight="normal" text-decoration="normal" x="265" y="115" text-anchor="start" dominant-baseline="alphabetic" fill-opacity="1">2</text><text fill="rgb(28,28,31)" stroke="none" font-family="geogebra-sans-serif, sans-serif" font-size="12px" font-style="normal" font-weight="normal" text-decoration="normal" x="342" y="115" text-anchor="start" dominant-baseline="alphabetic" fill-opacity="1">3</text><text fill="rgb(28,28,31)" stroke="none" font-family="geogebra-sans-serif, sans-serif" font-size="12px" font-style="normal" font-weight="normal" text-decoration="normal" x="419" y="115" text-anchor="start" dominant-baseline="alphabetic" fill-opacity="1">4</text><text fill="rgb(28,28,31)" stroke="none" font-family="geogebra-sans-serif, sans-serif" font-size="12px" font-style="normal" font-weight="normal" text-decoration="normal" x="497" y="115" text-anchor="start" dominant-baseline="alphabetic" fill-opacity="1">5</text><text fill="rgb(28,28,31)" stroke="none" font-family="geogebra-sans-serif, sans-serif" font-size="12px" font-style="normal" font-weight="normal" text-decoration="normal" x="574" y="115" text-anchor="start" dominant-baseline="alphabetic" fill-opacity="1">6</text><text fill="rgb(28,28,31)" stroke="none" font-family="geogebra-sans-serif, sans-serif" font-size="12px" font-style="normal" font-weight="normal" text-decoration="normal" x="651" y="115" text-anchor="start" dominant-baseline="alphabetic" fill-opacity="1">7</text><text fill="rgb(28,28,31)" stroke="none" font-family="geogebra-sans-serif, sans-serif" font-size="12px" font-style="normal" font-weight="normal" text-decoration="normal" x="728" y="115" text-anchor="start" dominant-baseline="alphabetic" fill-opacity="1">8</text><text fill="rgb(28,28,31)" stroke="none" font-family="geogebra-sans-serif, sans-serif" font-size="12px" font-style="normal" font-weight="normal" text-decoration="normal" x="806" y="115" text-anchor="start" dominant-baseline="alphabetic" fill-opacity="1">9</text><text fill="rgb(28,28,31)" stroke="none" font-family="geogebra-sans-serif, sans-serif" font-size="12px" font-style="normal" font-weight="normal" text-decoration="normal" x="880" y="115" text-anchor="start" dominant-baseline="alphabetic" fill-opacity="1">10</text><text fill="rgb(28,28,31)" stroke="none" font-family="geogebra-sans-serif, sans-serif" font-size="12px" font-style="normal" font-weight="normal" text-decoration="normal" x="957" y="115" text-anchor="start" dominant-baseline="alphabetic" fill-opacity="1">11</text><text fill="rgb(28,28,31)" stroke="none" font-family="geogebra-sans-serif, sans-serif" font-size="12px" font-style="normal" font-weight="normal" text-decoration="normal" x="93" y="644" text-anchor="start" dominant-baseline="alphabetic" fill-opacity="1">–7</text><text fill="rgb(28,28,31)" stroke="none" font-family="geogebra-sans-serif, sans-serif" font-size="12px" font-style="normal" font-weight="normal" text-decoration="normal" x="93" y="567" text-anchor="start" dominant-baseline="alphabetic" fill-opacity="1">–6</text><text fill="rgb(28,28,31)" stroke="none" font-family="geogebra-sans-serif, sans-serif" font-size="12px" font-style="normal" font-weight="normal" text-decoration="normal" x="93" y="490" text-anchor="start" dominant-baseline="alphabetic" fill-opacity="1">–5</text><text fill="rgb(28,28,31)" stroke="none" font-family="geogebra-sans-serif, sans-serif" font-size="12px" font-style="normal" font-weight="normal" text-decoration="normal" x="93" y="412" text-anchor="start" dominant-baseline="alphabetic" fill-opacity="1">–4</text><text fill="rgb(28,28,31)" stroke="none" font-family="geogebra-sans-serif, sans-serif" font-size="12px" font-style="normal" font-weight="normal" text-decoration="normal" x="93" y="335" text-anchor="start" dominant-baseline="alphabetic" fill-opacity="1">–3</text><text fill="rgb(28,28,31)" stroke="none" font-family="geogebra-sans-serif, sans-serif" font-size="12px" font-style="normal" font-weight="normal" text-decoration="normal" x="93" y="258" text-anchor="start" dominant-baseline="alphabetic" fill-opacity="1">–2</text><text fill="rgb(28,28,31)" stroke="none" font-family="geogebra-sans-serif, sans-serif" font-size="12px" font-style="normal" font-weight="normal" text-decoration="normal" x="93" y="181" text-anchor="start" dominant-baseline="alphabetic" fill-opacity="1">–1</text><text fill="rgb(28,28,31)" stroke="none" font-family="geogebra-sans-serif, sans-serif" font-size="12px" font-style="normal" font-weight="normal" text-decoration="normal" x="99" y="26" text-anchor="start" dominant-baseline="alphabetic" fill-opacity="1">1</text><text fill="rgb(28,28,31)" stroke="none" font-family="geogebra-sans-serif, sans-serif" font-size="12px" font-style="normal" font-weight="normal" text-decoration="normal" x="99" y="115" text-anchor="start" dominant-baseline="alphabetic" fill-opacity="1">0</text><path fill="none" stroke="rgb(199,80,0)" paint-order="fill stroke markers" d=" M 717.6016659753873 330.7601960943015 C 717.6016659753873 451.3809609452172 619.8192160211304 549.163410899474 499.1984511702145 549.163410899474 C 378.57768631929866 549.163410899474 280.7952363650418 451.3809609452172 280.7952363650418 330.7601960943015 C 280.7952363650418 210.13943124338573 378.57768631929866 112.3569812891289 499.1984511702145 112.3569812891289 C 619.8192160211304 112.3569812891289 717.6016659753873 210.13943124338573 717.6016659753873 330.7601960943015 Z" stroke-opacity="0.8" stroke-linecap="round" stroke-linejoin="round" stroke-miterlimit="10" stroke-width="2.5"/><text fill="rgb(199,80,0)" stroke="none" font-family="geogebra-sans-serif, sans-serif" font-size="16px" font-style="normal" font-weight="normal" text-decoration="normal" x="358" y="195" text-anchor="start" dominant-baseline="alphabetic" fill-opacity="1">(x - 5)² + (y + 3)² = 8</text><path fill="none" stroke="rgb(0,103,88)" paint-order="fill stroke markers" d=" M -5 526.0898588211561 L 526.0898588211566 -5" stroke-opacity="0.8" stroke-linecap="round" stroke-linejoin="round" stroke-miterlimit="10" stroke-width="2.5"/><text fill="rgb(0,103,88)" stroke="none" font-family="geogebra-sans-serif, sans-serif" font-size="16px" font-style="normal" font-weight="normal" text-decoration="normal" x="8" y="503" text-anchor="start" dominant-baseline="alphabetic" fill-opacity="1">L1: x - y - 4 = 0</text><text fill="rgb(0,0,0)" stroke="none" font-family="geogebra-sans-serif, sans-serif" font-size="16px" font-style="normal" font-weight="normal" text-decoration="normal" x="576" y="357" text-anchor="start" dominant-baseline="alphabetic" fill-opacity="1">r = 2.828</text><path fill="none" stroke="rgb(0,0,0)" paint-order="fill stroke markers" d=" M 499.1984511702145 330.7601960943015 L 717.6002927977614 331.534670710002" stroke-opacity="0.6980392156862745" stroke-linejoin="round" stroke-miterlimit="10" stroke-width="2.5" stroke-dasharray="6.5,4"/><path fill="rgb(21,101,192)" stroke="none" paint-order="stroke fill markers" d=" M 658.6328453918943 485.19459031598115 C 658.6328453918943 487.9560140651351 656.3942691410483 490.19459031598115 653.6328453918943 490.19459031598115 C 650.8714216427403 490.19459031598115 648.6328453918943 487.9560140651351 648.6328453918943 485.19459031598115 C 648.6328453918943 482.4331665668272 650.8714216427403 480.19459031598115 653.6328453918943 480.19459031598115 C 656.3942691410483 480.19459031598115 658.6328453918943 482.4331665668272 658.6328453918943 485.19459031598115 Z" fill-opacity="1"/><path fill="none" stroke="rgb(0,0,0)" paint-order="fill stroke markers" d=" M 658.6328453918943 485.19459031598115 C 658.6328453918943 487.9560140651351 656.3942691410483 490.19459031598115 653.6328453918943 490.19459031598115 C 650.8714216427403 490.19459031598115 648.6328453918943 487.9560140651351 648.6328453918943 485.19459031598115 C 648.6328453918943 482.4331665668272 650.8714216427403 480.19459031598115 653.6328453918943 480.19459031598115 C 656.3942691410483 480.19459031598115 658.6328453918943 482.4331665668272 658.6328453918943 485.19459031598115 Z" stroke-opacity="1" stroke-linecap="round" stroke-linejoin="round" stroke-miterlimit="10"/><text fill="rgb(21,101,192)" stroke="none" font-family="geogebra-sans-serif, sans-serif" font-size="16px" font-style="normal" font-weight="normal" text-decoration="normal" x="668" y="489" text-anchor="start" dominant-baseline="alphabetic" fill-opacity="1">A = (7, -5)</text><path fill="rgb(21,101,192)" stroke="none" paint-order="stroke fill markers" d=" M 349.76405694853463 176.32580187262175 C 349.76405694853463 179.08722562177573 347.5254806976886 181.32580187262175 344.76405694853463 181.32580187262175 C 342.0026331993807 181.32580187262175 339.76405694853463 179.08722562177573 339.76405694853463 176.32580187262175 C 339.76405694853463 173.56437812346778 342.0026331993807 171.32580187262175 344.76405694853463 171.32580187262175 C 347.5254806976886 171.32580187262175 349.76405694853463 173.56437812346778 349.76405694853463 176.32580187262175 Z" fill-opacity="1"/><path fill="none" stroke="rgb(0,0,0)" paint-order="fill stroke markers" d=" M 349.76405694853463 176.32580187262175 C 349.76405694853463 179.08722562177573 347.5254806976886 181.32580187262175 344.76405694853463 181.32580187262175 C 342.0026331993807 181.32580187262175 339.76405694853463 179.08722562177573 339.76405694853463 176.32580187262175 C 339.76405694853463 173.56437812346778 342.0026331993807 171.32580187262175 344.76405694853463 171.32580187262175 C 347.5254806976886 171.32580187262175 349.76405694853463 173.56437812346778 349.76405694853463 176.32580187262175 Z" stroke-opacity="1" stroke-linecap="round" stroke-linejoin="round" stroke-miterlimit="10"/><text fill="rgb(21,101,192)" stroke="none" font-family="geogebra-sans-serif, sans-serif" font-size="16px" font-style="normal" font-weight="normal" text-decoration="normal" x="270" y="168" text-anchor="start" dominant-baseline="alphabetic" fill-opacity="1">B = (3, -1)</text><path fill="rgb(21,101,192)" stroke="none" paint-order="stroke fill markers" d=" M 504.1984511702145 330.7601960943015 C 504.1984511702145 333.5216198434554 501.9598749193685 335.7601960943015 499.1984511702145 335.7601960943015 C 496.4370274210606 335.7601960943015 494.1984511702145 333.5216198434554 494.1984511702145 330.7601960943015 C 494.1984511702145 327.99877234514753 496.4370274210606 325.7601960943015 499.1984511702145 325.7601960943015 C 501.9598749193685 325.7601960943015 504.1984511702145 327.99877234514753 504.1984511702145 330.7601960943015 Z" fill-opacity="1"/><path fill="none" stroke="rgb(0,0,0)" paint-order="fill stroke markers" d=" M 504.1984511702145 330.7601960943015 C 504.1984511702145 333.5216198434554 501.9598749193685 335.7601960943015 499.1984511702145 335.7601960943015 C 496.4370274210606 335.7601960943015 494.1984511702145 333.5216198434554 494.1984511702145 330.7601960943015 C 494.1984511702145 327.99877234514753 496.4370274210606 325.7601960943015 499.1984511702145 325.7601960943015 C 501.9598749193685 325.7601960943015 504.1984511702145 327.99877234514753 504.1984511702145 330.7601960943015 Z" stroke-opacity="1" stroke-linecap="round" stroke-linejoin="round" stroke-miterlimit="10"/><text fill="rgb(21,101,192)" stroke="none" font-family="geogebra-sans-serif, sans-serif" font-size="16px" font-style="normal" font-weight="normal" text-decoration="normal" x="499" y="318" text-anchor="start" dominant-baseline="alphabetic" fill-opacity="1">C = (5, -3)</text></g></g></svg>