<svg version="1.1" xmlns="http://www.w3.org/2000/svg" xmlns:xlink="http://www.w3.org/1999/xlink" width="1229" height="924"><defs><clipPath id="uZOhzntapXuI"><path fill="none" stroke="none" d=" M 0 0 L 1229 0 L 1229 924 L 0 924 L 0 0 Z"/></clipPath></defs><g transform="scale(1,1)" clip-path="url(#uZOhzntapXuI)"><g><rect fill="rgb(255,255,255)" stroke="none" x="0" y="0" width="1230" height="925" fill-opacity="1"/><path fill="none" stroke="rgb(180,179,186)" paint-order="fill stroke markers" d=" M 69.5 0.5 L 69.5 924.5 M 69.5 0.5 L 69.5 924.5 M 151.5 0.5 L 151.5 924.5 M 234.5 0.5 L 234.5 924.5 M 316.5 0.5 L 316.5 924.5 M 399.5 0.5 L 399.5 924.5 M 481.5 0.5 L 481.5 924.5 M 646.5 0.5 L 646.5 924.5 M 728.5 0.5 L 728.5 924.5 M 811.5 0.5 L 811.5 924.5 M 893.5 0.5 L 893.5 924.5 M 975.5 0.5 L 975.5 924.5 M 1058.5 0.5 L 1058.5 924.5 M 1140.5 0.5 L 1140.5 924.5 M 1223.5 0.5 L 1223.5 924.5" stroke-opacity="1" stroke-linecap="round" stroke-linejoin="round" stroke-miterlimit="10"/><path fill="none" stroke="rgb(180,179,186)" paint-order="fill stroke markers" d=" M 3.5 0.5 L 3.5 924.5 M 19.5 0.5 L 19.5 924.5 M 36.5 0.5 L 36.5 924.5 M 52.5 0.5 L 52.5 924.5 M 85.5 0.5 L 85.5 924.5 M 102.5 0.5 L 102.5 924.5 M 118.5 0.5 L 118.5 924.5 M 135.5 0.5 L 135.5 924.5 M 168.5 0.5 L 168.5 924.5 M 184.5 0.5 L 184.5 924.5 M 201.5 0.5 L 201.5 924.5 M 217.5 0.5 L 217.5 924.5 M 250.5 0.5 L 250.5 924.5 M 267.5 0.5 L 267.5 924.5 M 283.5 0.5 L 283.5 924.5 M 300.5 0.5 L 300.5 924.5 M 333.5 0.5 L 333.5 924.5 M 349.5 0.5 L 349.5 924.5 M 366.5 0.5 L 366.5 924.5 M 382.5 0.5 L 382.5 924.5 M 415.5 0.5 L 415.5 924.5 M 432.5 0.5 L 432.5 924.5 M 448.5 0.5 L 448.5 924.5 M 464.5 0.5 L 464.5 924.5 M 497.5 0.5 L 497.5 924.5 M 514.5 0.5 L 514.5 924.5 M 530.5 0.5 L 530.5 924.5 M 547.5 0.5 L 547.5 924.5 M 580.5 0.5 L 580.5 924.5 M 596.5 0.5 L 596.5 924.5 M 613.5 0.5 L 613.5 924.5 M 629.5 0.5 L 629.5 924.5 M 662.5 0.5 L 662.5 924.5 M 679.5 0.5 L 679.5 924.5 M 695.5 0.5 L 695.5 924.5 M 712.5 0.5 L 712.5 924.5 M 745.5 0.5 L 745.5 924.5 M 761.5 0.5 L 761.5 924.5 M 778.5 0.5 L 778.5 924.5 M 794.5 0.5 L 794.5 924.5 M 827.5 0.5 L 827.5 924.5 M 844.5 0.5 L 844.5 924.5 M 860.5 0.5 L 860.5 924.5 M 877.5 0.5 L 877.5 924.5 M 910.5 0.5 L 910.5 924.5 M 926.5 0.5 L 926.5 924.5 M 943.5 0.5 L 943.5 924.5 M 959.5 0.5 L 959.5 924.5 M 992.5 0.5 L 992.5 924.5 M 1008.5 0.5 L 1008.5 924.5 M 1025.5 0.5 L 1025.5 924.5 M 1041.5 0.5 L 1041.5 924.5 M 1074.5 0.5 L 1074.5 924.5 M 1091.5 0.5 L 1091.5 924.5 M 1107.5 0.5 L 1107.5 924.5 M 1124.5 0.5 L 1124.5 924.5 M 1157.5 0.5 L 1157.5 924.5 M 1173.5 0.5 L 1173.5 924.5 M 1190.5 0.5 L 1190.5 924.5 M 1206.5 0.5 L 1206.5 924.5" stroke-opacity="0.23529411764705882" stroke-linecap="round" stroke-linejoin="round" stroke-miterlimit="10"/><path fill="none" stroke="rgb(180,179,186)" paint-order="fill stroke markers" d=" M 0.5 6.5 L 1229.5 6.5 M 0.5 6.5 L 1229.5 6.5 M 0.5 88.5 L 1229.5 88.5 M 0.5 171.5 L 1229.5 171.5 M 0.5 253.5 L 1229.5 253.5 M 0.5 335.5 L 1229.5 335.5 M 0.5 418.5 L 1229.5 418.5 M 0.5 500.5 L 1229.5 500.5 M 0.5 583.5 L 1229.5 583.5 M 0.5 665.5 L 1229.5 665.5 M 0.5 830.5 L 1229.5 830.5 M 0.5 912.5 L 1229.5 912.5" stroke-opacity="1" stroke-linecap="round" stroke-linejoin="round" stroke-miterlimit="10"/><path fill="none" stroke="rgb(180,179,186)" paint-order="fill stroke markers" d=" M 0.5 6.5 L 1229.5 6.5 M 0.5 22.5 L 1229.5 22.5 M 0.5 39.5 L 1229.5 39.5 M 0.5 55.5 L 1229.5 55.5 M 0.5 72.5 L 1229.5 72.5 M 0.5 105.5 L 1229.5 105.5 M 0.5 121.5 L 1229.5 121.5 M 0.5 138.5 L 1229.5 138.5 M 0.5 154.5 L 1229.5 154.5 M 0.5 187.5 L 1229.5 187.5 M 0.5 204.5 L 1229.5 204.5 M 0.5 220.5 L 1229.5 220.5 M 0.5 237.5 L 1229.5 237.5 M 0.5 270.5 L 1229.5 270.5 M 0.5 286.5 L 1229.5 286.5 M 0.5 302.5 L 1229.5 302.5 M 0.5 319.5 L 1229.5 319.5 M 0.5 352.5 L 1229.5 352.5 M 0.5 368.5 L 1229.5 368.5 M 0.5 385.5 L 1229.5 385.5 M 0.5 401.5 L 1229.5 401.5 M 0.5 434.5 L 1229.5 434.5 M 0.5 451.5 L 1229.5 451.5 M 0.5 467.5 L 1229.5 467.5 M 0.5 484.5 L 1229.5 484.5 M 0.5 517.5 L 1229.5 517.5 M 0.5 533.5 L 1229.5 533.5 M 0.5 550.5 L 1229.5 550.5 M 0.5 566.5 L 1229.5 566.5 M 0.5 599.5 L 1229.5 599.5 M 0.5 616.5 L 1229.5 616.5 M 0.5 632.5 L 1229.5 632.5 M 0.5 649.5 L 1229.5 649.5 M 0.5 682.5 L 1229.5 682.5 M 0.5 698.5 L 1229.5 698.5 M 0.5 715.5 L 1229.5 715.5 M 0.5 731.5 L 1229.5 731.5 M 0.5 764.5 L 1229.5 764.5 M 0.5 781.5 L 1229.5 781.5 M 0.5 797.5 L 1229.5 797.5 M 0.5 813.5 L 1229.5 813.5 M 0.5 846.5 L 1229.5 846.5 M 0.5 863.5 L 1229.5 863.5 M 0.5 879.5 L 1229.5 879.5 M 0.5 896.5 L 1229.5 896.5" stroke-opacity="0.23529411764705882" stroke-linecap="round" stroke-linejoin="round" stroke-miterlimit="10"/><path fill="none" stroke="rgb(28,28,31)" paint-order="fill stroke markers" d=" M 563.5 2.5 L 563.5 924.5" stroke-opacity="1" stroke-miterlimit="10"/><path fill="none" stroke="rgb(28,28,31)" paint-order="fill stroke markers" d=" M 563.5 1.5 L 559.5 5.5" stroke-opacity="1" stroke-miterlimit="10"/><path fill="none" stroke="rgb(28,28,31)" paint-order="fill stroke markers" d=" M 563.5 1.5 L 567.5 5.5" stroke-opacity="1" stroke-miterlimit="10"/><path fill="none" stroke="rgb(28,28,31)" paint-order="fill stroke markers" d=" M 0.5 748.5 L 1227.5 748.5" stroke-opacity="1" stroke-miterlimit="10"/><path fill="none" stroke="rgb(28,28,31)" paint-order="fill stroke markers" d=" M 1228.5 748.5 L 1224.5 744.5" stroke-opacity="1" stroke-miterlimit="10"/><path fill="none" stroke="rgb(28,28,31)" paint-order="fill stroke markers" d=" M 1228.5 748.5 L 1224.5 752.5" stroke-opacity="1" stroke-miterlimit="10"/><text fill="rgb(28,28,31)" stroke="none" font-family="geogebra-sans-serif, sans-serif" font-size="12px" font-style="normal" font-weight="normal" text-decoration="normal" x="64" y="764" text-anchor="start" dominant-baseline="alphabetic" fill-opacity="1">–6</text><text fill="rgb(28,28,31)" stroke="none" font-family="geogebra-sans-serif, sans-serif" font-size="12px" font-style="normal" font-weight="normal" text-decoration="normal" x="146" y="764" text-anchor="start" dominant-baseline="alphabetic" fill-opacity="1">–5</text><text fill="rgb(28,28,31)" stroke="none" font-family="geogebra-sans-serif, sans-serif" font-size="12px" font-style="normal" font-weight="normal" text-decoration="normal" x="229" y="764" text-anchor="start" dominant-baseline="alphabetic" fill-opacity="1">–4</text><text fill="rgb(28,28,31)" stroke="none" font-family="geogebra-sans-serif, sans-serif" font-size="12px" font-style="normal" font-weight="normal" text-decoration="normal" x="311" y="764" text-anchor="start" dominant-baseline="alphabetic" fill-opacity="1">–3</text><text fill="rgb(28,28,31)" stroke="none" font-family="geogebra-sans-serif, sans-serif" font-size="12px" font-style="normal" font-weight="normal" text-decoration="normal" x="394" y="764" text-anchor="start" dominant-baseline="alphabetic" fill-opacity="1">–2</text><text fill="rgb(28,28,31)" stroke="none" font-family="geogebra-sans-serif, sans-serif" font-size="12px" font-style="normal" font-weight="normal" text-decoration="normal" x="476" y="764" text-anchor="start" dominant-baseline="alphabetic" fill-opacity="1">–1</text><text fill="rgb(28,28,31)" stroke="none" font-family="geogebra-sans-serif, sans-serif" font-size="12px" font-style="normal" font-weight="normal" text-decoration="normal" x="644" y="764" text-anchor="start" dominant-baseline="alphabetic" fill-opacity="1">1</text><text fill="rgb(28,28,31)" stroke="none" font-family="geogebra-sans-serif, sans-serif" font-size="12px" font-style="normal" font-weight="normal" text-decoration="normal" x="726" y="764" text-anchor="start" dominant-baseline="alphabetic" fill-opacity="1">2</text><text fill="rgb(28,28,31)" stroke="none" font-family="geogebra-sans-serif, sans-serif" font-size="12px" font-style="normal" font-weight="normal" text-decoration="normal" x="809" y="764" text-anchor="start" dominant-baseline="alphabetic" fill-opacity="1">3</text><text fill="rgb(28,28,31)" stroke="none" font-family="geogebra-sans-serif, sans-serif" font-size="12px" font-style="normal" font-weight="normal" text-decoration="normal" x="891" y="764" text-anchor="start" dominant-baseline="alphabetic" fill-opacity="1">4</text><text fill="rgb(28,28,31)" stroke="none" font-family="geogebra-sans-serif, sans-serif" font-size="12px" font-style="normal" font-weight="normal" text-decoration="normal" x="973" y="764" text-anchor="start" dominant-baseline="alphabetic" fill-opacity="1">5</text><text fill="rgb(28,28,31)" stroke="none" font-family="geogebra-sans-serif, sans-serif" font-size="12px" font-style="normal" font-weight="normal" text-decoration="normal" x="1056" y="764" text-anchor="start" dominant-baseline="alphabetic" fill-opacity="1">6</text><text fill="rgb(28,28,31)" stroke="none" font-family="geogebra-sans-serif, sans-serif" font-size="12px" font-style="normal" font-weight="normal" text-decoration="normal" x="1138" y="764" text-anchor="start" dominant-baseline="alphabetic" fill-opacity="1">7</text><text fill="rgb(28,28,31)" stroke="none" font-family="geogebra-sans-serif, sans-serif" font-size="12px" font-style="normal" font-weight="normal" text-decoration="normal" x="543" y="917" text-anchor="start" dominant-baseline="alphabetic" fill-opacity="1">–2</text><text fill="rgb(28,28,31)" stroke="none" font-family="geogebra-sans-serif, sans-serif" font-size="12px" font-style="normal" font-weight="normal" text-decoration="normal" x="543" y="835" text-anchor="start" dominant-baseline="alphabetic" fill-opacity="1">–1</text><text fill="rgb(28,28,31)" stroke="none" font-family="geogebra-sans-serif, sans-serif" font-size="12px" font-style="normal" font-weight="normal" text-decoration="normal" x="549" y="670" text-anchor="start" dominant-baseline="alphabetic" fill-opacity="1">1</text><text fill="rgb(28,28,31)" stroke="none" font-family="geogebra-sans-serif, sans-serif" font-size="12px" font-style="normal" font-weight="normal" text-decoration="normal" x="549" y="588" text-anchor="start" dominant-baseline="alphabetic" fill-opacity="1">2</text><text fill="rgb(28,28,31)" stroke="none" font-family="geogebra-sans-serif, sans-serif" font-size="12px" font-style="normal" font-weight="normal" text-decoration="normal" x="549" y="505" text-anchor="start" dominant-baseline="alphabetic" fill-opacity="1">3</text><text fill="rgb(28,28,31)" stroke="none" font-family="geogebra-sans-serif, sans-serif" font-size="12px" font-style="normal" font-weight="normal" text-decoration="normal" x="549" y="423" text-anchor="start" dominant-baseline="alphabetic" fill-opacity="1">4</text><text fill="rgb(28,28,31)" stroke="none" font-family="geogebra-sans-serif, sans-serif" font-size="12px" font-style="normal" font-weight="normal" text-decoration="normal" x="549" y="340" text-anchor="start" dominant-baseline="alphabetic" fill-opacity="1">5</text><text fill="rgb(28,28,31)" stroke="none" font-family="geogebra-sans-serif, sans-serif" font-size="12px" font-style="normal" font-weight="normal" text-decoration="normal" x="549" y="258" text-anchor="start" dominant-baseline="alphabetic" fill-opacity="1">6</text><text fill="rgb(28,28,31)" stroke="none" font-family="geogebra-sans-serif, sans-serif" font-size="12px" font-style="normal" font-weight="normal" text-decoration="normal" x="549" y="176" text-anchor="start" dominant-baseline="alphabetic" fill-opacity="1">7</text><text fill="rgb(28,28,31)" stroke="none" font-family="geogebra-sans-serif, sans-serif" font-size="12px" font-style="normal" font-weight="normal" text-decoration="normal" x="549" y="93" text-anchor="start" dominant-baseline="alphabetic" fill-opacity="1">8</text><text fill="rgb(28,28,31)" stroke="none" font-family="geogebra-sans-serif, sans-serif" font-size="12px" font-style="normal" font-weight="normal" text-decoration="normal" x="549" y="764" text-anchor="start" dominant-baseline="alphabetic" fill-opacity="1">0</text><path fill="none" stroke="rgb(199,80,0)" paint-order="fill stroke markers" d=" M 480.2368912030842 -10 L 480.49999999999994 -6.532263137702671 L 480.50999999999993 -6.532263137702785 L 481.49999999999994 6.526261797854772 L 481.50999999999993 6.526261797854659 L 482.5 19.463452603262 L 482.51 19.463452603261658 L 483.49999999999994 32.27930927851844 L 483.50999999999993 32.279309278518326 L 484.49999999999994 44.97383182362489 L 484.50999999999993 44.97383182362478 L 485.49999999999994 57.547020238581126 L 485.50999999999993 57.54702023858101 L 486.49999999999994 69.99887452338692 L 486.50999999999993 69.9988745233868 L 487.49999999999994 82.3293946780426 L 487.50999999999993 82.32939467804226 L 488.49999999999994 94.53858070254796 L 488.50999999999993 94.53858070254773 L 489.5 106.62643259690299 L 489.51 106.62643259690276 L 490.49999999999994 118.59295036110734 L 490.50999999999993 118.59295036110723 L 491.49999999999994 130.43813399516182 L 491.50999999999993 130.4381339951616 L 492.49999999999994 142.16198349906597 L 492.50999999999993 142.16198349906585 L 493.49999999999994 153.7644988728198 L 493.50999999999993 153.76449887281956 L 494.49999999999994 165.24568011642327 L 494.50999999999993 165.24568011642316 L 495.49999999999994 176.60552722987654 L 495.50999999999993 176.60552722987643 L 496.5 187.84404021317948 L 496.51 187.84404021317926 L 497.49999999999994 198.96121906633186 L 497.50999999999993 198.96121906633175 L 498.49999999999994 209.95706378933426 L 498.50999999999993 209.95706378933414 L 499.49999999999994 220.83157438218632 L 499.50999999999993 220.8315743821862 L 500.49999999999994 231.58475084488816 L 500.50999999999993 231.58475084488794 L 501.49999999999994 242.21659317743962 L 501.50999999999993 242.2165931774394 L 502.49999999999994 252.72710137984075 L 502.50999999999993 252.72710137984052 L 503.49999999999994 263.1162754520916 L 503.50999999999993 263.1162754520915 L 504.49999999999994 273.38411539419207 L 504.50999999999993 273.38411539419184 L 505.49999999999994 283.53062120614237 L 505.50999999999993 283.53062120614214 L 506.49999999999994 293.55579288794223 L 506.50999999999993 293.5557928879421 L 507.49999999999994 303.45963043959193 L 507.50999999999993 303.4596304395919 L 508.49999999999994 313.24213386109136 L 508.50999999999993 313.24213386109125 L 509.49999999999994 322.90330315244046 L 509.50999999999993 322.9033031524404 L 510.49999999999994 332.4431383136393 L 510.50999999999993 332.4431383136392 L 511.49999999999994 341.86163934468766 L 511.50999999999993 341.8616393446876 L 512.5 351.1588062455859 L 512.51 351.1588062455857 L 513.5 360.3346390163337 L 513.51 360.33463901633365 L 514.5 369.3891376569314 L 514.51 369.3891376569313 L 515.5 378.3223021673788 L 515.51 378.32230216737867 L 516.5 387.13413254767573 L 516.51 387.1341325476757 L 517.5 395.8246287978226 L 517.51 395.8246287978224 L 518.5 404.393790917819 L 518.51 404.3937909178189 L 519.5 412.84161890766495 L 519.51 412.8416189076649 L 520.5 421.1681127673608 L 520.51 421.16811276736075 L 521.5 429.3732724969064 L 521.51 429.37327249690634 L 522.5 437.45709809630176 L 522.51 437.4570980963016 L 523.5 445.41958956554663 L 523.51 445.4195895655466 L 524.5 453.2607469046414 L 524.51 453.26074690464134 L 525.5 460.98057011358577 L 525.51 460.98057011358566 L 526.5 468.5790591923797 L 526.51 468.57905919237965 L 527.5 476.05621414102353 L 527.51 476.0562141410234 L 528.5 483.41203495951703 L 528.51 483.4120349595169 L 529.5 490.6465216478603 L 529.51 490.64652164786014 L 530.5 497.7596742060531 L 530.51 497.7596742060531 L 531.5 504.7514926340958 L 531.51 504.7514926340957 L 532.5 511.6219769319881 L 532.51 511.621976931988 L 533.5 518.3711270997301 L 533.51 518.3711270997301 L 534.5 524.9989431373217 L 534.51 524.9989431373217 L 535.5 531.5054250447632 L 535.51 531.5054250447631 L 536.5 537.8905728220543 L 536.51 537.8905728220543 L 537.5 544.1543864691952 L 537.51 544.1543864691952 L 538.5 550.2968659861858 L 538.51 550.2968659861857 L 539.5 556.318011373026 L 539.51 556.3180113730259 L 540.5 562.217822629716 L 540.51 562.217822629716 L 541.5 567.9962997562557 L 541.51 567.9962997562557 L 542.5 573.653442752645 L 542.51 573.6534427526449 L 543.5 579.189251618884 L 543.51 579.189251618884 L 544.5 584.6037263549729 L 544.51 584.6037263549728 L 545.5 589.8968669609113 L 545.51 589.8968669609112 L 546.5 595.0686734366996 L 546.51 595.0686734366994 L 547.5 600.1191457823375 L 547.51 600.1191457823373 L 548.5 605.048283997825 L 548.51 605.0482839978249 L 549.5 609.8560880831623 L 549.51 609.8560880831623 L 550.5 614.5425580383493 L 550.51 614.5425580383493 L 551.5 619.107693863386 L 551.51 619.107693863386 L 552.5 623.5514955582724 L 552.51 623.5514955582723 L 553.5 627.8739631230086 L 553.51 627.8739631230085 L 554.5 632.0750965575944 L 554.51 632.0750965575944 L 555.5 636.1548958620299 L 555.51 636.1548958620299 L 556.5 640.1133610363152 L 556.51 640.1133610363152 L 557.5 643.9504920804501 L 557.51 643.9504920804501 L 558.5 647.6662889944348 L 558.51 647.6662889944348 L 559.5 651.2607517782691 L 559.51 651.2607517782691 L 560.5 654.7338804319531 L 560.51 654.7338804319531 L 561.5 658.085674955487 L 561.51 658.085674955487 L 562.5 661.3161353488705 L 562.51 661.3161353488704 L 563.5 664.4252616121037 L 563.51 664.4252616121037 L 564.5 667.4130537451865 L 564.51 667.4130537451865 L 565.5 670.2795117481191 L 565.51 670.2795117481191 L 566.5 673.0246356209014 L 566.51 673.0246356209014 L 567.5 675.6484253635334 L 567.51 675.6484253635334 L 568.5 678.1508809760151 L 568.51 678.1508809760151 L 569.5 680.5320024583466 L 569.51 680.5320024583466 L 570.5 682.7917898105277 L 570.51 682.7917898105277 L 571.5 684.9302430325585 L 571.51 684.9302430325585 L 572.5 686.947362124439 L 572.51 686.947362124439 L 573.5 688.8431470861692 L 573.51 688.8431470861692 L 574.5 690.6175979177492 L 574.51 690.6175979177492 L 575.5 692.2707146191789 L 575.51 692.2707146191789 L 576.5 693.8024971904582 L 576.51 693.8024971904582 L 577.5 695.2129456315872 L 577.51 695.2129456315872 L 578.5 696.502059942566 L 578.51 696.502059942566 L 579.5 697.6698401233945 L 579.51 697.6698401233945 L 580.5 698.7162861740727 L 580.51 698.7162861740727 L 581.5 699.6413980946005 L 581.51 699.6413980946005 L 582.5 700.4451758849781 L 582.51 700.4451758849781 L 583.5 701.1276195452054 L 583.51 701.1276195452054 L 584.5 701.6887290752824 L 584.51 701.6887290752824 L 585.5 702.1285044752092 L 585.51 702.1285044752092 L 586.5 702.4469457449856 L 586.51 702.4469457449856 L 587.5 702.6440528846116 L 587.51 702.6440528846116 L 588.5 702.7198258940874 L 588.5 702.674264773413 L 589.5 702.72076622949 L 589.5 702.674264773413 L 590.5 702.5073695225882 L 590.51 702.5073695225882 L 591.5 702.2191401416131 L 591.51 702.2191401416131 L 592.5 701.8095766304878 L 592.51 701.8095766304878 L 593.5 701.2786789892122 L 593.51 701.2786789892122 L 594.5 700.6264472177862 L 594.51 700.6264472177862 L 595.5 699.85288131621 L 595.51 699.85288131621 L 596.5 698.9579812844834 L 596.51 698.9579812844835 L 597.5 697.9417471226066 L 597.51 697.9417471226066 L 598.5 696.8041788305795 L 598.51 696.8041788305795 L 599.5 695.5452764084021 L 599.51 695.5452764084021 L 600.5 694.1650398560744 L 600.51 694.1650398560744 L 601.5 692.6634691735964 L 601.51 692.6634691735964 L 602.5 691.040564360968 L 602.51 691.040564360968 L 603.5 689.2963254181894 L 603.51 689.2963254181894 L 604.5 687.4307523452605 L 604.51 687.4307523452605 L 605.5 685.4438451421813 L 605.51 685.4438451421813 L 606.5 683.3356038089519 L 606.51 683.3356038089519 L 607.5 681.1060283455721 L 607.51 681.1060283455721 L 608.5 678.755118752042 L 608.51 678.755118752042 L 609.5 676.2828750283617 L 609.51 676.2828750283617 L 610.5 673.689297174531 L 610.51 673.689297174531 L 611.5 670.97438519055 L 611.51 670.97438519055 L 612.5 668.1381390764188 L 612.51 668.1381390764188 L 613.5 665.1805588321373 L 613.51 665.1805588321373 L 614.5 662.1016444577054 L 614.51 662.1016444577054 L 615.5 658.9013959531233 L 615.51 658.9013959531233 L 616.5 655.5798133183908 L 616.51 655.579813318391 L 617.5 652.1368965535081 L 617.51 652.1368965535082 L 618.5 648.5726456584752 L 618.51 648.5726456584752 L 619.5 644.8870606332919 L 619.51 644.8870606332919 L 620.5 641.0801414779583 L 620.51 641.0801414779583 L 621.5 637.1518881924743 L 621.51 637.1518881924744 L 622.5 633.1023007768401 L 622.51 633.1023007768401 L 623.5 628.9313792310556 L 623.51 628.9313792310556 L 624.5 624.6391235551209 L 624.51 624.6391235551209 L 625.5 620.2255337490358 L 625.51 620.2255337490358 L 626.5 615.6906098128004 L 626.51 615.6906098128004 L 627.5 611.0343517464148 L 627.51 611.0343517464148 L 628.5 606.2567595498788 L 628.51 606.2567595498788 L 629.5 601.3578332231925 L 629.51 601.3578332231925 L 630.5 596.3375727663561 L 630.51 596.3375727663561 L 631.5 591.1959781793691 L 631.51 591.1959781793691 L 632.5 585.933049462232 L 632.51 585.933049462232 L 633.5 580.5487866149446 L 633.51 580.5487866149446 L 634.5 575.0431896375069 L 634.51 575.043189637507 L 635.5 569.4162585299189 L 635.51 569.4162585299189 L 636.5 563.6679932921805 L 636.51 563.6679932921807 L 637.5 557.7983939242919 L 637.51 557.798393924292 L 638.5 551.807460426253 L 638.51 551.8074604262531 L 639.5 545.6951927980638 L 639.51 545.6951927980638 L 640.5 539.4615910397245 L 640.51 539.4615910397245 L 641.5 533.1066551512347 L 641.51 533.1066551512347 L 642.5 526.6303851325945 L 642.51 526.6303851325945 L 643.5 520.0327809838041 L 643.51 520.0327809838042 L 644.5 513.3138427048634 L 644.51 513.3138427048634 L 645.5 506.47357029577245 L 645.51 506.47357029577245 L 646.5 499.51196375653115 L 646.51 499.51196375653115 L 647.5 492.4290230871397 L 647.51 492.42902308713974 L 648.5 485.22474828759783 L 648.51 485.2247482875979 L 649.5 477.8991393579057 L 649.51 477.89913935790577 L 650.5 470.45219629806326 L 650.51 470.4521962980633 L 651.5 462.8839191080705 L 651.51 462.8839191080706 L 652.5 455.19430778792736 L 652.51 455.1943077879275 L 653.5 447.38336233763414 L 653.51 447.3833623376342 L 654.5 439.4510827571906 L 654.51 439.4510827571907 L 655.5 431.3974690465967 L 655.51 431.39746904659677 L 656.5 423.2225212058525 L 656.51 423.22252120585256 L 657.5 414.9262392349579 L 657.51 414.926239234958 L 658.5 406.5086231339131 L 658.51 406.5086231339132 L 659.5 397.9696729027182 L 659.51 397.9696729027183 L 660.5 389.30938854137264 L 660.51 389.3093885413727 L 661.5 380.527770049877 L 661.51 380.5277700498772 L 662.5 371.6248174282311 L 662.51 371.62481742823115 L 663.5 362.6005306764348 L 663.51 362.60053067643486 L 664.5 353.4549097944882 L 664.51 353.4549097944883 L 665.5 344.18795478239133 L 665.51 344.1879547823914 L 666.5 334.7996656401443 L 666.51 334.79966564014444 L 667.5 325.2900423677467 L 667.51 325.2900423677468 L 668.5 315.6590849651991 L 668.51 315.65908496519927 L 669.5 305.9067934325009 L 669.51 305.906793432501 L 670.5 296.03316776965266 L 670.51 296.03316776965283 L 671.5 286.038207976654 L 671.51 286.0382079766542 L 672.5 275.92191405350513 L 672.51 275.92191405350525 L 673.5 265.68428600020604 L 673.51 265.68428600020616 L 674.5 255.32532381675634 L 674.51 255.32532381675645 L 675.5 244.84502750315664 L 675.51 244.84502750315687 L 676.5 234.24339705940633 L 676.51 234.24339705940656 L 677.5 223.52043248550615 L 677.51 223.52043248550638 L 678.5 212.6761337814554 L 678.51 212.67613378145563 L 679.5 201.71050094725445 L 679.51 201.71050094725456 L 680.5 190.62353398290327 L 680.51 190.6235339829035 L 681.5 179.41523288840153 L 681.51 179.41523288840165 L 682.5 168.0855976637498 L 682.51 168.08559766375004 L 683.5 156.63462830894753 L 683.51 156.63462830894764 L 684.5 145.06232482399525 L 684.51 145.06232482399537 L 685.5 133.36868720889242 L 685.51 133.36868720889254 L 686.5 121.55371546363938 L 686.51 121.55371546363949 L 687.5 109.61740958823611 L 687.51 109.61740958823634 L 688.5 97.55976958268229 L 688.51 97.55976958268252 L 689.5 85.38079544697848 L 689.51 85.38079544697882 L 690.5 73.08048718112411 L 690.51 73.08048718112434 L 691.5 60.658844785119754 L 691.51 60.65884478511987 L 692.5 48.11586825896495 L 692.51 48.115868258965065 L 693.5 35.451557602659705 L 693.51 35.45155760265993 L 694.5 22.665912816204354 L 694.51 22.665912816204468 L 695.5 9.75893389959856 L 695.51 9.758933899598787 L 696.5 -3.2693791471571103 L 696.51 -3.2693791471569966 L 697.011848018604 -10" stroke-opacity="0.8" stroke-linecap="round" stroke-linejoin="round" stroke-miterlimit="10" stroke-width="2.5"/><g transform="scale(19,19)"><g transform="translate(26.789473684210527,5.472629663157894)"><path fill="rgb(199,80,0)" stroke="none" paint-order="stroke fill markers" d=" M 0.367 -0.4 L 0.367 -0.4 L 0.307 -0.083 Q 0.298 -0.021 0.271 0.059000000000000004 Q 0.261 0.088 0.251 0.108 Q 0.216 0.182 0.164 0.2 Q 0.151 0.20500000000000002 0.138 0.20500000000000002 Q 0.088 0.20500000000000002 0.064 0.171 Q 0.053 0.156 0.053 0.136 Q 0.053 0.096 0.08700000000000001 0.081 Q 0.097 0.076 0.108 0.076 Q 0.137 0.076 0.14400000000000002 0.101 Q 0.145 0.106 0.145 0.111 Q 0.145 0.145 0.115 0.159 Q 0.10400000000000001 0.164 0.09 0.165 Q 0.109 0.183 0.138 0.183 Q 0.182 0.183 0.20700000000000002 0.085 Q 0.212 0.062 0.219 0.025 L 0.225 -0.005 L 0.3 -0.4 L 0.234 -0.4 Q 0.209 -0.4 0.20700000000000002 -0.40800000000000003 L 0.20600000000000002 -0.40800000000000003 L 0.20600000000000002 -0.41200000000000003 Q 0.20600000000000002 -0.429 0.223 -0.431 L 0.223 -0.431 L 0.23600000000000002 -0.431 L 0.305 -0.431 Q 0.329 -0.556 0.338 -0.588 Q 0.368 -0.6880000000000001 0.444 -0.7030000000000001 Q 0.455 -0.705 0.465 -0.705 Q 0.517 -0.705 0.541 -0.671 L 0.541 -0.671 Q 0.552 -0.656 0.552 -0.636 Q 0.552 -0.596 0.518 -0.581 Q 0.508 -0.5760000000000001 0.497 -0.5760000000000001 Q 0.468 -0.5760000000000001 0.461 -0.601 Q 0.46 -0.606 0.46 -0.611 Q 0.46 -0.642 0.488 -0.657 Q 0.499 -0.664 0.514 -0.665 Q 0.495 -0.683 0.465 -0.683 Q 0.434 -0.683 0.418 -0.649 Q 0.41100000000000003 -0.635 0.394 -0.545 L 0.373 -0.431 L 0.456 -0.431 Q 0.481 -0.431 0.483 -0.42 Q 0.483 -0.402 0.467 -0.4 L 0.466 -0.4 L 0.453 -0.4 L 0.367 -0.4 Z" fill-opacity="1"/></g><g transform="translate(27.387473684210526,5.472629663157894)"><path fill="rgb(199,80,0)" stroke="none" paint-order="stroke fill markers" d=" M 0.331 0.24 L 0.331 0.24 Q 0.331 0.25 0.321 0.25 Q 0.309 0.25 0.268 0.209 Q 0.20600000000000002 0.147 0.165 0.062 Q 0.099 -0.074 0.099 -0.25 Q 0.099 -0.419 0.162 -0.555 Q 0.214 -0.666 0.294 -0.733 Q 0.315 -0.75 0.321 -0.75 Q 0.331 -0.75 0.331 -0.74 Q 0.331 -0.735 0.318 -0.723 Q 0.157 -0.559 0.157 -0.25 Q 0.157 0.058 0.314 0.218 Q 0.331 0.23500000000000001 0.331 0.24 Z" fill-opacity="1"/></g><g transform="translate(27.776473684210526,5.472629663157894)"><path fill="rgb(199,80,0)" stroke="none" paint-order="stroke fill markers" d=" M 0.334 -0.302 L 0.3 -0.165 Q 0.28300000000000003 -0.097 0.28300000000000003 -0.077 Q 0.28300000000000003 -0.025 0.32 -0.014 Q 0.328 -0.011 0.338 -0.011 Q 0.388 -0.011 0.429 -0.061 Q 0.456 -0.093 0.47100000000000003 -0.14200000000000002 Q 0.47400000000000003 -0.153 0.484 -0.153 Q 0.496 -0.153 0.496 -0.14300000000000002 Q 0.496 -0.11800000000000001 0.465 -0.07100000000000001 Q 0.41100000000000003 0.011 0.336 0.011 Q 0.268 0.011 0.23700000000000002 -0.046 Q 0.231 -0.055 0.228 -0.065 Q 0.20400000000000001 -0.017 0.162 0.002 Q 0.14300000000000002 0.011 0.123 0.011 Q 0.063 0.011 0.039 -0.024 Q 0.029 -0.037 0.029 -0.055 Q 0.029 -0.092 0.061 -0.107 Q 0.07200000000000001 -0.113 0.084 -0.113 Q 0.114 -0.113 0.12 -0.088 Q 0.121 -0.083 0.121 -0.078 Q 0.121 -0.044 0.08700000000000001 -0.028 Q 0.081 -0.025 0.074 -0.024 Q 0.095 -0.011 0.124 -0.011 Q 0.177 -0.011 0.20800000000000002 -0.082 Q 0.214 -0.097 0.219 -0.115 Q 0.273 -0.319 0.273 -0.353 Q 0.267 -0.41500000000000004 0.219 -0.42 Q 0.167 -0.42 0.124 -0.367 L 0.124 -0.366 Q 0.124 -0.365 0.123 -0.365 Q 0.108 -0.34500000000000003 0.096 -0.319 Q 0.091 -0.307 0.08700000000000001 -0.295 L 0.085 -0.289 Q 0.083 -0.278 0.07200000000000001 -0.278 Q 0.06 -0.278 0.06 -0.28800000000000003 Q 0.06 -0.313 0.092 -0.36 Q 0.146 -0.442 0.221 -0.442 Q 0.298 -0.442 0.329 -0.366 Q 0.361 -0.428 0.41400000000000003 -0.44 Q 0.424 -0.442 0.434 -0.442 Q 0.493 -0.442 0.517 -0.40900000000000003 Q 0.527 -0.395 0.527 -0.376 Q 0.527 -0.335 0.49 -0.321 Q 0.481 -0.318 0.47300000000000003 -0.318 Q 0.442 -0.318 0.436 -0.34500000000000003 Q 0.435 -0.34900000000000003 0.435 -0.353 Q 0.435 -0.383 0.464 -0.4 Q 0.47300000000000003 -0.405 0.483 -0.40700000000000003 Q 0.462 -0.42 0.433 -0.42 Q 0.365 -0.42 0.337 -0.314 Q 0.335 -0.308 0.334 -0.302 Z" fill-opacity="1"/></g><g transform="translate(28.348473684210525,5.472629663157894)"><path fill="rgb(199,80,0)" stroke="none" paint-order="stroke fill markers" d=" M 0.289 -0.25 L 0.289 -0.25 Q 0.289 -0.081 0.226 0.055 Q 0.17400000000000002 0.166 0.094 0.233 Q 0.073 0.25 0.067 0.25 Q 0.057 0.25 0.057 0.24 Q 0.057 0.23500000000000001 0.07 0.223 Q 0.231 0.059000000000000004 0.231 -0.25 Q 0.231 -0.555 0.081 -0.712 L 0.076 -0.717 Q 0.057 -0.735 0.057 -0.74 Q 0.057 -0.75 0.067 -0.75 Q 0.079 -0.75 0.12 -0.709 Q 0.182 -0.647 0.223 -0.562 Q 0.289 -0.426 0.289 -0.25 Z" fill-opacity="1"/></g><g transform="translate(29.29302923976608,5.472629663157894)"><path fill="rgb(199,80,0)" stroke="none" paint-order="stroke fill markers" d=" M 0.687 -0.327 L 0.09 -0.327 Q 0.058 -0.327 0.056 -0.34700000000000003 Q 0.056 -0.367 0.089 -0.367 L 0.6880000000000001 -0.367 Q 0.72 -0.367 0.721 -0.34700000000000003 Q 0.721 -0.327 0.687 -0.327 M 0.6880000000000001 -0.133 L 0.089 -0.133 Q 0.057 -0.133 0.056 -0.153 Q 0.056 -0.17300000000000001 0.09 -0.17300000000000001 L 0.687 -0.17300000000000001 Q 0.719 -0.17300000000000001 0.721 -0.153 Q 0.721 -0.133 0.6880000000000001 -0.133 Z" fill-opacity="1"/></g><g transform="translate(30.626584795321637,5.472629663157894)"><path fill="rgb(199,80,0)" stroke="none" paint-order="stroke fill markers" d=" M 0.449 -0.201 L 0.449 -0.201 Q 0.449 -0.098 0.372 -0.031 Q 0.31 0.022 0.231 0.022 Q 0.139 0.022 0.085 -0.055 Q 0.05 -0.10400000000000001 0.05 -0.161 Q 0.05 -0.20700000000000002 0.091 -0.213 Q 0.095 -0.214 0.099 -0.214 Q 0.136 -0.214 0.147 -0.181 Q 0.149 -0.17300000000000001 0.149 -0.165 Q 0.149 -0.133 0.121 -0.121 Q 0.111 -0.116 0.099 -0.116 Q 0.088 -0.116 0.082 -0.11800000000000001 Q 0.1 -0.055 0.159 -0.024 Q 0.192 -0.006 0.229 -0.006 Q 0.296 -0.006 0.336 -0.07100000000000001 Q 0.36 -0.113 0.36 -0.20800000000000002 Q 0.36 -0.292 0.342 -0.334 Q 0.314 -0.398 0.257 -0.398 Q 0.176 -0.398 0.128 -0.328 Q 0.122 -0.319 0.115 -0.319 Q 0.10200000000000001 -0.319 0.101 -0.333 L 0.101 -0.34500000000000003 L 0.101 -0.641 Q 0.101 -0.664 0.111 -0.665 Q 0.115 -0.665 0.123 -0.662 Q 0.186 -0.634 0.256 -0.634 Q 0.328 -0.634 0.392 -0.663 Q 0.397 -0.666 0.4 -0.666 Q 0.41000000000000003 -0.666 0.41000000000000003 -0.655 Q 0.41000000000000003 -0.642 0.378 -0.613 Q 0.31 -0.551 0.217 -0.551 Q 0.17500000000000002 -0.551 0.132 -0.5640000000000001 L 0.132 -0.369 Q 0.184 -0.42 0.259 -0.42 Q 0.34700000000000003 -0.42 0.404 -0.343 Q 0.449 -0.28200000000000003 0.449 -0.201 Z" fill-opacity="1"/></g><g transform="translate(31.404362573099416,4.062629663157894)"><path fill="rgb(199,80,0)" stroke="none" paint-order="stroke fill markers" d=" M 0.662109375 2.35693359375 Q 0.5390625 2.248046875 0.451171875 2.10888671875 Q 0.36328125 1.9697265625 0.31005859375 1.81494140625 Q 0.2568359375 1.66015625 0.232421875 1.494873046875 Q 0.2080078125 1.32958984375 0.2080078125 1.16015625 Q 0.2080078125 0.98974609375 0.232421875 0.823974609375 Q 0.2568359375 0.658203125 0.309814453125 0.50390625 Q 0.36279296875 0.349609375 0.450927734375 0.210205078125 Q 0.5390625 0.07080078125 0.662109375 -0.0380859375 Q 0.662109375 -0.0400390625 0.6669921875 -0.0400390625 L 0.69287109375 -0.0400390625 Q 0.69580078125 -0.0400390625 0.698486328125 -0.037109375 Q 0.701171875 -0.0341796875 0.701171875 -0.03076171875 Q 0.701171875 -0.02685546875 0.69921875 -0.02490234375 Q 0.5849609375 0.087890625 0.506103515625 0.22607421875 Q 0.42724609375 0.3642578125 0.380859375 0.51708984375 Q 0.33447265625 0.669921875 0.314697265625 0.8310546875 Q 0.294921875 0.9921875 0.294921875 1.16015625 Q 0.294921875 1.32763671875 0.314453125 1.486572265625 Q 0.333984375 1.6455078125 0.380859375 1.80029296875 Q 0.427734375 1.955078125 0.5068359375 2.09326171875 Q 0.5859375 2.2314453125 0.69921875 2.34423828125 Q 0.701171875 2.34619140625 0.701171875 2.35009765625 Q 0.701171875 2.35302734375 0.6982421875 2.35595703125 Q 0.6953125 2.35888671875 0.69287109375 2.35888671875 L 0.6669921875 2.35888671875 Q 0.662109375 2.35888671875 0.662109375 2.35693359375 Z" fill-opacity="1"/></g><g transform="translate(32.14036257309942,5.472629663157894)"><path fill="rgb(199,80,0)" stroke="none" paint-order="stroke fill markers" d=" M 0.334 -0.302 L 0.3 -0.165 Q 0.28300000000000003 -0.097 0.28300000000000003 -0.077 Q 0.28300000000000003 -0.025 0.32 -0.014 Q 0.328 -0.011 0.338 -0.011 Q 0.388 -0.011 0.429 -0.061 Q 0.456 -0.093 0.47100000000000003 -0.14200000000000002 Q 0.47400000000000003 -0.153 0.484 -0.153 Q 0.496 -0.153 0.496 -0.14300000000000002 Q 0.496 -0.11800000000000001 0.465 -0.07100000000000001 Q 0.41100000000000003 0.011 0.336 0.011 Q 0.268 0.011 0.23700000000000002 -0.046 Q 0.231 -0.055 0.228 -0.065 Q 0.20400000000000001 -0.017 0.162 0.002 Q 0.14300000000000002 0.011 0.123 0.011 Q 0.063 0.011 0.039 -0.024 Q 0.029 -0.037 0.029 -0.055 Q 0.029 -0.092 0.061 -0.107 Q 0.07200000000000001 -0.113 0.084 -0.113 Q 0.114 -0.113 0.12 -0.088 Q 0.121 -0.083 0.121 -0.078 Q 0.121 -0.044 0.08700000000000001 -0.028 Q 0.081 -0.025 0.074 -0.024 Q 0.095 -0.011 0.124 -0.011 Q 0.177 -0.011 0.20800000000000002 -0.082 Q 0.214 -0.097 0.219 -0.115 Q 0.273 -0.319 0.273 -0.353 Q 0.267 -0.41500000000000004 0.219 -0.42 Q 0.167 -0.42 0.124 -0.367 L 0.124 -0.366 Q 0.124 -0.365 0.123 -0.365 Q 0.108 -0.34500000000000003 0.096 -0.319 Q 0.091 -0.307 0.08700000000000001 -0.295 L 0.085 -0.289 Q 0.083 -0.278 0.07200000000000001 -0.278 Q 0.06 -0.278 0.06 -0.28800000000000003 Q 0.06 -0.313 0.092 -0.36 Q 0.146 -0.442 0.221 -0.442 Q 0.298 -0.442 0.329 -0.366 Q 0.361 -0.428 0.41400000000000003 -0.44 Q 0.424 -0.442 0.434 -0.442 Q 0.493 -0.442 0.517 -0.40900000000000003 Q 0.527 -0.395 0.527 -0.376 Q 0.527 -0.335 0.49 -0.321 Q 0.481 -0.318 0.47300000000000003 -0.318 Q 0.442 -0.318 0.436 -0.34500000000000003 Q 0.435 -0.34900000000000003 0.435 -0.353 Q 0.435 -0.383 0.464 -0.4 Q 0.47300000000000003 -0.405 0.483 -0.40700000000000003 Q 0.462 -0.42 0.433 -0.42 Q 0.365 -0.42 0.337 -0.314 Q 0.335 -0.308 0.334 -0.302 Z" fill-opacity="1"/></g><g transform="translate(32.93458479532164,5.472629663157894)"><path fill="rgb(199,80,0)" stroke="none" paint-order="stroke fill markers" d=" M 0.661 -0.23 L 0.116 -0.23 Q 0.084 -0.23 0.083 -0.25 Q 0.083 -0.27 0.116 -0.27 L 0.661 -0.27 Q 0.6930000000000001 -0.27 0.6940000000000001 -0.25 Q 0.6940000000000001 -0.23 0.661 -0.23 Z" fill-opacity="1"/></g><g transform="translate(34.247728955011226,4.796121663157894)"><path fill="rgb(199,80,0)" stroke="none" paint-order="stroke fill markers" d=" M 0.29 -0.352 L 0.29 -0.352 Q 0.39 -0.332 0.434 -0.254 Q 0.457 -0.215 0.457 -0.171 Q 0.457 -0.08600000000000001 0.387 -0.028 Q 0.326 0.022 0.244 0.022 Q 0.145 0.022 0.085 -0.037 Q 0.042 -0.079 0.042 -0.135 Q 0.042 -0.182 0.084 -0.191 Q 0.091 -0.193 0.098 -0.193 Q 0.136 -0.193 0.149 -0.161 Q 0.153 -0.148 0.154 -0.137 Q 0.154 -0.097 0.11800000000000001 -0.085 Q 0.10400000000000001 -0.08 0.088 -0.082 Q 0.125 -0.02 0.216 -0.008 Q 0.229 -0.006 0.241 -0.006 Q 0.305 -0.006 0.335 -0.069 Q 0.354 -0.109 0.354 -0.171 Q 0.354 -0.304 0.274 -0.331 Q 0.256 -0.337 0.23500000000000001 -0.337 L 0.191 -0.337 Q 0.169 -0.337 0.167 -0.34800000000000003 Q 0.167 -0.358 0.182 -0.36 Q 0.197 -0.36 0.221 -0.363 Q 0.272 -0.365 0.301 -0.402 L 0.301 -0.403 L 0.302 -0.404 L 0.303 -0.405 L 0.304 -0.405 L 0.31 -0.41500000000000004 Q 0.338 -0.462 0.338 -0.529 Q 0.338 -0.622 0.266 -0.638 Q 0.254 -0.641 0.242 -0.641 Q 0.17200000000000001 -0.641 0.128 -0.601 Q 0.117 -0.591 0.109 -0.579 Q 0.171 -0.579 0.171 -0.529 Q 0.171 -0.493 0.14 -0.481 Q 0.131 -0.47800000000000004 0.12 -0.47800000000000004 Q 0.081 -0.47800000000000004 0.07100000000000001 -0.513 L 0.07100000000000001 -0.513 L 0.07100000000000001 -0.514 Q 0.069 -0.522 0.069 -0.53 Q 0.069 -0.597 0.135 -0.637 Q 0.183 -0.666 0.246 -0.666 Q 0.337 -0.666 0.393 -0.612 L 0.395 -0.61 Q 0.43 -0.5740000000000001 0.43 -0.528 Q 0.43 -0.445 0.359 -0.389 Q 0.328 -0.365 0.29 -0.352 Z" fill-opacity="1"/></g><path fill="rgb(199,80,0)" stroke="none" paint-order="stroke fill markers" d=" M 33.997728955011226 5.202630163157894 L 34.997728955011226 5.202630163157894 L 34.997728955011226 5.242629163157894 L 33.997728955011226 5.242629163157894 L 33.997728955011226 5.202630163157894 Z" fill-opacity="1"/><g transform="translate(33.997728955011226,6.1585806631578945)"><path fill="rgb(199,80,0)" stroke="none" paint-order="stroke fill markers" d=" M 0.294 -0.64 L 0.294 -0.079 Q 0.294 -0.049 0.306 -0.041 Q 0.323 -0.031 0.387 -0.031 L 0.419 -0.031 L 0.419 0 Q 0.384 -0.003 0.257 -0.003 Q 0.13 -0.003 0.095 0 L 0.095 -0.031 L 0.127 -0.031 Q 0.20400000000000001 -0.031 0.215 -0.049 L 0.216 -0.05 Q 0.22 -0.058 0.22 -0.079 L 0.22 -0.597 Q 0.168 -0.5710000000000001 0.089 -0.5710000000000001 L 0.089 -0.602 Q 0.209 -0.602 0.271 -0.666 Q 0.29 -0.666 0.293 -0.659 L 0.293 -0.659 L 0.293 -0.658 Q 0.294 -0.655 0.294 -0.64 Z" fill-opacity="1"/></g><g transform="translate(34.497728955011226,6.1585806631578945)"><path fill="rgb(199,80,0)" stroke="none" paint-order="stroke fill markers" d=" M 0.46 -0.32 Q 0.46 -0.17400000000000002 0.423 -0.094 Q 0.364 0.018000000000000002 0.249 0.022 Q 0.158 0.022 0.10300000000000001 -0.05 Q 0.092 -0.063 0.084 -0.079 Q 0.039 -0.162 0.039 -0.32 Q 0.039 -0.467 0.076 -0.547 Q 0.126 -0.659 0.23800000000000002 -0.666 L 0.25 -0.666 Q 0.339 -0.666 0.395 -0.595 L 0.395 -0.594 Q 0.40900000000000003 -0.5760000000000001 0.42 -0.554 Q 0.46 -0.46900000000000003 0.46 -0.32 M 0.249 0 L 0.249 0 Q 0.312 0 0.34600000000000003 -0.061 Q 0.36 -0.088 0.366 -0.125 Q 0.377 -0.189 0.377 -0.332 Q 0.377 -0.47100000000000003 0.367 -0.527 Q 0.34900000000000003 -0.622 0.275 -0.641 Q 0.262 -0.644 0.249 -0.644 Q 0.179 -0.644 0.147 -0.5740000000000001 Q 0.136 -0.55 0.13 -0.516 Q 0.122 -0.462 0.122 -0.332 Q 0.122 -0.181 0.133 -0.121 Q 0.151 -0.025 0.221 -0.004 Q 0.23500000000000001 0 0.249 0 Z" fill-opacity="1"/></g><g transform="translate(35.0606508924786,4.062629663157894)"><path fill="rgb(199,80,0)" stroke="none" paint-order="stroke fill markers" d=" M 0.04296875 2.35888671875 Q 0.0341796875 2.35888671875 0.0341796875 2.35009765625 Q 0.0341796875 2.34619140625 0.0361328125 2.34423828125 Q 0.150390625 2.2314453125 0.22900390625 2.093017578125 Q 0.3076171875 1.95458984375 0.35400390625 1.802001953125 Q 0.400390625 1.6494140625 0.420166015625 1.489990234375 Q 0.43994140625 1.33056640625 0.43994140625 1.1591796875 Q 0.43994140625 0.98583984375 0.420166015625 0.82763671875 Q 0.400390625 0.66943359375 0.3544921875 0.517578125 Q 0.30859375 0.36572265625 0.22900390625 0.226318359375 Q 0.1494140625 0.0869140625 0.0361328125 -0.02490234375 Q 0.0341796875 -0.02685546875 0.0341796875 -0.03076171875 Q 0.0341796875 -0.0400390625 0.04296875 -0.0400390625 L 0.06884765625 -0.0400390625 Q 0.072265625 -0.0400390625 0.07421875 -0.0380859375 Q 0.19775390625 0.0712890625 0.28564453125 0.210693359375 Q 0.37353515625 0.35009765625 0.42626953125 0.5048828125 Q 0.47900390625 0.65966796875 0.5029296875 0.82470703125 Q 0.52685546875 0.98974609375 0.52685546875 1.16015625 Q 0.52685546875 1.32958984375 0.5029296875 1.494140625 Q 0.47900390625 1.65869140625 0.42626953125 1.813720703125 Q 0.37353515625 1.96875 0.28564453125 2.108154296875 Q 0.19775390625 2.24755859375 0.07421875 2.35693359375 Q 0.072265625 2.35888671875 0.06884765625 2.35888671875 L 0.04296875 2.35888671875 Z" fill-opacity="1"/></g><g transform="translate(35.796650892478596,4.292905263157895) scale(0.7,0.7)"><path fill="rgb(199,80,0)" stroke="none" paint-order="stroke fill markers" d=" M 0.449 -0.17400000000000002 L 0.449 -0.17400000000000002 L 0.421 0 L 0.05 0 Q 0.05 -0.025 0.056 -0.032 L 0.061 -0.037 L 0.253 -0.251 Q 0.358 -0.369 0.358 -0.47200000000000003 Q 0.358 -0.561 0.304 -0.607 L 0.303 -0.608 L 0.302 -0.608 Q 0.27 -0.635 0.224 -0.635 Q 0.152 -0.635 0.109 -0.5730000000000001 Q 0.097 -0.555 0.089 -0.533 Q 0.092 -0.534 0.10200000000000001 -0.534 Q 0.14200000000000002 -0.534 0.153 -0.498 L 0.153 -0.497 Q 0.155 -0.49 0.155 -0.482 Q 0.155 -0.442 0.117 -0.431 Q 0.109 -0.429 0.10300000000000001 -0.429 Q 0.066 -0.429 0.054 -0.46 Q 0.05 -0.47100000000000003 0.05 -0.485 Q 0.05 -0.562 0.109 -0.617 Q 0.162 -0.666 0.23700000000000002 -0.666 Q 0.34700000000000003 -0.666 0.40800000000000003 -0.592 Q 0.443 -0.549 0.448 -0.49 Q 0.449 -0.481 0.449 -0.47200000000000003 Q 0.449 -0.399 0.394 -0.333 Q 0.365 -0.299 0.304 -0.243 L 0.243 -0.189 L 0.233 -0.18 L 0.127 -0.077 L 0.307 -0.077 Q 0.395 -0.077 0.402 -0.085 Q 0.41200000000000003 -0.099 0.424 -0.17400000000000002 L 0.449 -0.17400000000000002 Z" fill-opacity="1"/></g><g transform="translate(36.339535033089994,5.472629663157894)"><path fill="rgb(199,80,0)" stroke="none" paint-order="stroke fill markers" d=" M 0.40900000000000003 -0.23 L 0.40900000000000003 0.05 Q 0.40900000000000003 0.082 0.389 0.083 Q 0.369 0.083 0.369 0.05 L 0.369 -0.23 L 0.089 -0.23 Q 0.057 -0.23 0.056 -0.25 Q 0.056 -0.27 0.089 -0.27 L 0.369 -0.27 L 0.369 -0.55 Q 0.369 -0.582 0.389 -0.583 Q 0.40900000000000003 -0.583 0.40900000000000003 -0.55 L 0.40900000000000003 -0.27 L 0.6880000000000001 -0.27 Q 0.72 -0.27 0.721 -0.25 Q 0.721 -0.23 0.6880000000000001 -0.23 L 0.40900000000000003 -0.23 Z" fill-opacity="1"/></g><g transform="translate(37.339757255312215,5.472629663157894)"><path fill="rgb(199,80,0)" stroke="none" paint-order="stroke fill markers" d=" M 0.46 -0.32 Q 0.46 -0.17400000000000002 0.423 -0.094 Q 0.364 0.018000000000000002 0.249 0.022 Q 0.158 0.022 0.10300000000000001 -0.05 Q 0.092 -0.063 0.084 -0.079 Q 0.039 -0.162 0.039 -0.32 Q 0.039 -0.467 0.076 -0.547 Q 0.126 -0.659 0.23800000000000002 -0.666 L 0.25 -0.666 Q 0.339 -0.666 0.395 -0.595 L 0.395 -0.594 Q 0.40900000000000003 -0.5760000000000001 0.42 -0.554 Q 0.46 -0.46900000000000003 0.46 -0.32 M 0.249 0 L 0.249 0 Q 0.312 0 0.34600000000000003 -0.061 Q 0.36 -0.088 0.366 -0.125 Q 0.377 -0.189 0.377 -0.332 Q 0.377 -0.47100000000000003 0.367 -0.527 Q 0.34900000000000003 -0.622 0.275 -0.641 Q 0.262 -0.644 0.249 -0.644 Q 0.179 -0.644 0.147 -0.5740000000000001 Q 0.136 -0.55 0.13 -0.516 Q 0.122 -0.462 0.122 -0.332 Q 0.122 -0.181 0.133 -0.121 Q 0.151 -0.025 0.221 -0.004 Q 0.23500000000000001 0 0.249 0 Z" fill-opacity="1"/></g><g transform="translate(37.839757255312215,5.472629663157894)"><path fill="rgb(199,80,0)" stroke="none" paint-order="stroke fill markers" d=" M 0.18 -0.083 L 0.18 0 L 0.097 0 L 0.097 -0.083 L 0.18 -0.083 Z" fill-opacity="1"/></g><g transform="translate(38.11775725531221,5.472629663157894)"><path fill="rgb(199,80,0)" stroke="none" paint-order="stroke fill markers" d=" M 0.449 -0.201 L 0.449 -0.201 Q 0.449 -0.098 0.372 -0.031 Q 0.31 0.022 0.231 0.022 Q 0.139 0.022 0.085 -0.055 Q 0.05 -0.10400000000000001 0.05 -0.161 Q 0.05 -0.20700000000000002 0.091 -0.213 Q 0.095 -0.214 0.099 -0.214 Q 0.136 -0.214 0.147 -0.181 Q 0.149 -0.17300000000000001 0.149 -0.165 Q 0.149 -0.133 0.121 -0.121 Q 0.111 -0.116 0.099 -0.116 Q 0.088 -0.116 0.082 -0.11800000000000001 Q 0.1 -0.055 0.159 -0.024 Q 0.192 -0.006 0.229 -0.006 Q 0.296 -0.006 0.336 -0.07100000000000001 Q 0.36 -0.113 0.36 -0.20800000000000002 Q 0.36 -0.292 0.342 -0.334 Q 0.314 -0.398 0.257 -0.398 Q 0.176 -0.398 0.128 -0.328 Q 0.122 -0.319 0.115 -0.319 Q 0.10200000000000001 -0.319 0.101 -0.333 L 0.101 -0.34500000000000003 L 0.101 -0.641 Q 0.101 -0.664 0.111 -0.665 Q 0.115 -0.665 0.123 -0.662 Q 0.186 -0.634 0.256 -0.634 Q 0.328 -0.634 0.392 -0.663 Q 0.397 -0.666 0.4 -0.666 Q 0.41000000000000003 -0.666 0.41000000000000003 -0.655 Q 0.41000000000000003 -0.642 0.378 -0.613 Q 0.31 -0.551 0.217 -0.551 Q 0.17500000000000002 -0.551 0.132 -0.5640000000000001 L 0.132 -0.369 Q 0.184 -0.42 0.259 -0.42 Q 0.34700000000000003 -0.42 0.404 -0.343 Q 0.449 -0.28200000000000003 0.449 -0.201 Z" fill-opacity="1"/></g><g transform="translate(38.61775725531221,5.472629663157894)"><path fill="rgb(199,80,0)" stroke="none" paint-order="stroke fill markers" d=" M 0.449 -0.201 L 0.449 -0.201 Q 0.449 -0.098 0.372 -0.031 Q 0.31 0.022 0.231 0.022 Q 0.139 0.022 0.085 -0.055 Q 0.05 -0.10400000000000001 0.05 -0.161 Q 0.05 -0.20700000000000002 0.091 -0.213 Q 0.095 -0.214 0.099 -0.214 Q 0.136 -0.214 0.147 -0.181 Q 0.149 -0.17300000000000001 0.149 -0.165 Q 0.149 -0.133 0.121 -0.121 Q 0.111 -0.116 0.099 -0.116 Q 0.088 -0.116 0.082 -0.11800000000000001 Q 0.1 -0.055 0.159 -0.024 Q 0.192 -0.006 0.229 -0.006 Q 0.296 -0.006 0.336 -0.07100000000000001 Q 0.36 -0.113 0.36 -0.20800000000000002 Q 0.36 -0.292 0.342 -0.334 Q 0.314 -0.398 0.257 -0.398 Q 0.176 -0.398 0.128 -0.328 Q 0.122 -0.319 0.115 -0.319 Q 0.10200000000000001 -0.319 0.101 -0.333 L 0.101 -0.34500000000000003 L 0.101 -0.641 Q 0.101 -0.664 0.111 -0.665 Q 0.115 -0.665 0.123 -0.662 Q 0.186 -0.634 0.256 -0.634 Q 0.328 -0.634 0.392 -0.663 Q 0.397 -0.666 0.4 -0.666 Q 0.41000000000000003 -0.666 0.41000000000000003 -0.655 Q 0.41000000000000003 -0.642 0.378 -0.613 Q 0.31 -0.551 0.217 -0.551 Q 0.17500000000000002 -0.551 0.132 -0.5640000000000001 L 0.132 -0.369 Q 0.184 -0.42 0.259 -0.42 Q 0.34700000000000003 -0.42 0.404 -0.343 Q 0.449 -0.28200000000000003 0.449 -0.201 Z" fill-opacity="1"/></g></g></g></g></svg>